<svg xmlns="http://www.w3.org/2000/svg" xmlns:xlink="http://www.w3.org/1999/xlink" width="600" height="500" viewBox="0 0 600 500">
  <defs>
    <clipPath id="clip-path">
      <path id="Path_169" data-name="Path 169" d="M271.412,263.858c-23.752-25.627-75.177-34.513-105.1-18.946C155.2,250.694,144.275,262.6,133.128,268.3c-24.519,12.544-36.042,22.147-42.721,54.068C84.2,352,87.2,376.033,100.85,403.4c15.77,31.612,52.813,45.884,86.249,46.828,18.748.534,51.563-.437,67.826-10.045,29.107-17.193,36.137-32.836,43.521-75.93C303.975,331.954,295.169,289.484,271.412,263.858Z" transform="translate(-87.321 -237.21)"/>
    </clipPath>
  </defs>
  <g id="Group_381" data-name="Group 381" transform="translate(-894 -5160)">
    <g id="_7270204" data-name="7270204" transform="translate(902.5 5045.5)">
      <rect id="Rectangle_11" data-name="Rectangle 11" width="600" height="500" rx="20" transform="translate(-8.5 114.5)" fill="#edf6fa"/>
      <g id="Group_81" data-name="Group 81" transform="translate(152.474 177.348)">
        <path id="Path_167" data-name="Path 167" d="M302.051,427.347H24V24H302.051ZM26.54,424.806H299.51V26.54H26.54Z" transform="translate(-24 -24)" fill="#457bc9"/>
      </g>
      <path id="Path_891" data-name="Path 891" d="M16.021-17.11h-2.26L11.914-22H4.526L2.789-17.11H.516L7.2-34.535H9.313Zm-4.776-6.72L8.512-31.254a7.109,7.109,0,0,1-.268-1.167H8.2a6.509,6.509,0,0,1-.279,1.167L5.207-23.829Zm22.261-5.723L29.774-17.11H27.711l-2.564-8.907a5.807,5.807,0,0,1-.194-1.155H24.9a5.449,5.449,0,0,1-.255,1.13l-2.78,8.932h-2L16.106-29.553H18.2L20.772-20.2a5.636,5.636,0,0,1,.17,1.116h.1a5.229,5.229,0,0,1,.219-1.141l2.868-9.332h1.823l2.576,9.381a6.7,6.7,0,0,1,.182,1.118h.1a5.171,5.171,0,0,1,.207-1.118l2.526-9.381ZM44.723-17.11H42.73v-1.944h-.049a4.172,4.172,0,0,1-3.828,2.236,4.091,4.091,0,0,1-2.91-.985,3.41,3.41,0,0,1-1.051-2.612q0-3.488,4.107-4.059L42.732-25q0-3.171-2.564-3.171a6.126,6.126,0,0,0-4.059,1.531v-2.041a7.711,7.711,0,0,1,4.229-1.167q4.387,0,4.387,4.642ZM42.73-23.4l-3,.415a4.874,4.874,0,0,0-2.09.686,1.98,1.98,0,0,0-.7,1.744,1.9,1.9,0,0,0,.65,1.489,2.512,2.512,0,0,0,1.732.577,3.2,3.2,0,0,0,2.449-1.037,3.712,3.712,0,0,0,.965-2.634Zm12.236-4.132a2.437,2.437,0,0,0-1.507-.4,2.543,2.543,0,0,0-2.132,1.2,5.562,5.562,0,0,0-.856,3.281v6.343H48.477V-29.553H50.47v2.564h.049a4.345,4.345,0,0,1,1.3-2.045,2.965,2.965,0,0,1,1.956-.735,3.253,3.253,0,0,1,1.192.17ZM67.752-17.11H65.759v-2.114H65.71a4.6,4.6,0,0,1-4.277,2.406,4.647,4.647,0,0,1-3.748-1.671,6.855,6.855,0,0,1-1.4-4.551,7.457,7.457,0,0,1,1.555-4.946,5.133,5.133,0,0,1,4.144-1.859,3.989,3.989,0,0,1,3.733,2.017h.049v-7.7h1.99Zm-1.993-5.626v-1.835a3.56,3.56,0,0,0-1-2.552,3.342,3.342,0,0,0-2.527-1.045,3.441,3.441,0,0,0-2.868,1.337,5.859,5.859,0,0,0-1.045,3.694,5.268,5.268,0,0,0,1,3.4,3.277,3.277,0,0,0,2.7,1.237,3.4,3.4,0,0,0,2.7-1.2,4.482,4.482,0,0,0,1.037-3.037Z" transform="translate(263.482 571.919)" fill="#457bc9"/>
      <g id="Group_89" data-name="Group 89" transform="translate(184.646 285.673)">
        <g id="Group_82" data-name="Group 82" clip-path="url(#clip-path)">
          <path id="Path_168" data-name="Path 168" d="M271.412,263.858c-23.752-25.627-75.177-34.513-105.1-18.946C155.2,250.694,144.275,262.6,133.128,268.3c-24.519,12.544-36.042,22.147-42.721,54.068C84.2,352,87.2,376.033,100.85,403.4c15.77,31.612,52.813,45.884,86.249,46.828,18.748.534,51.563-.437,67.826-10.045,29.107-17.193,36.137-32.836,43.521-75.93C303.975,331.954,295.169,289.484,271.412,263.858Z" transform="translate(-87.321 -237.21)" fill="#a5d3ef"/>
        </g>
        <g id="Group_88" data-name="Group 88" clip-path="url(#clip-path)">
          <path id="Path_170" data-name="Path 170" d="M377.51,548.34l.94,63.249,37.607-.036.965-61.145Z" transform="translate(-230.076 -390.266)" fill="#c48d65"/>
          <path id="Path_171" data-name="Path 171" d="M134.73,556.62l2.911,60.363,37.18-.844.325-56.989Z" transform="translate(-110.643 -394.339)" fill="#c48d65"/>
          <path id="Path_172" data-name="Path 172" d="M200.857,394.06s-41.684,10.974-53.519,27.5-15.5,28.919-16.487,42.444-.412,15.623-.412,15.623L169,479.476l.2,56.167,90.065-.3.584-58.127,37.657-.326s-1.982-31.815-9.54-46.539S264.8,405.487,254.612,401.28s-24.712-8.49-24.712-8.49Z" transform="translate(-108.451 -313.745)" fill="#457bc9"/>
          <path id="Path_173" data-name="Path 173" d="M228.472,527.093a23.625,23.625,0,0,0,17.878-8.261s-7.662,11.721-18.778,10.669S211.95,515.53,211.95,515.53,216.9,527.093,228.472,527.093Z" transform="translate(-148.631 -374.126)" fill="#2f5184"/>
          <g id="Group_83" data-name="Group 83" transform="translate(71.852 138.7)">
            <path id="Path_174" data-name="Path 174" d="M252.708,511.158a105.818,105.818,0,0,1-2.129,14.88c-.674,3.069-1.433,6.377-3.15,9.089a10.532,10.532,0,0,1-10.146,4.811,14.027,14.027,0,0,1-4.862-1.788q-.45-.259-.884-.549c-.112-.071-.218-.147-.325-.223-.052-.036-.335-.239-.229-.163.066.052-.218-.173-.311-.244a1.573,1.573,0,0,1-.142-.117c-.98-.853-2.444.544-1.458,1.4a16.323,16.323,0,0,0,6.3,3.3,12.409,12.409,0,0,0,6.1.167,13.191,13.191,0,0,0,6.488-3.988c2.281-2.469,3.282-5.848,4.09-8.988a92.689,92.689,0,0,0,2.032-11.1c.285-2.154.533-4.319.691-6.481.087-1.275-1.97-1.265-2.063,0Z" transform="translate(-228.744 -510.207)" fill="#353535"/>
          </g>
          <g id="Group_84" data-name="Group 84" transform="translate(72.138 138.696)">
            <path id="Path_175" data-name="Path 175" d="M229.314,511.155a104.768,104.768,0,0,0,2.4,16.273c.732,3.13,1.59,6.62,3.557,9.277a12.6,12.6,0,0,0,12.077,5.142,15.93,15.93,0,0,0,7.662-3.6c.985-.859-.477-2.251-1.458-1.4-.132.112-.269.218-.406.325-.207.163.091-.066-.056.04-.1.071-.193.137-.29.2-.218.152-.447.3-.671.442a14.9,14.9,0,0,1-4.034,1.793,10.089,10.089,0,0,1-5.37.036,11.516,11.516,0,0,1-5.6-3.888c-1.8-2.292-2.632-5.614-3.312-8.439A93.972,93.972,0,0,1,232,517.088c-.249-1.97-.472-3.953-.622-5.939-.1-1.26-2.159-1.27-2.063.005Z" transform="translate(-229.308 -510.2)" fill="#353535"/>
          </g>
          <path id="Path_176" data-name="Path 176" d="M301.181,310.084c-.239-4.689-3.968-9.262-3.968-9.262s1.565-6.254-3.607-12.63c-3.049-3.76-4.573-5.772-9.928-7.235a41.585,41.585,0,0,1-6.473-1.966c-3.9-1.788-10.68-4.034-17.152-1.982-9.862,3.125-10.222,8.058-14.795,10.944s-8.3,8.541-8.779,13.352-.122,5.655-.122,5.655-3.247,3.968-1.565,11.426,6.377,10.344,12.63,13.352,32.715,1.321,32.715,1.321a20.615,20.615,0,0,0,13.23-4.329C299.738,323.791,301.425,314.773,301.181,310.084Z" transform="translate(-159.63 -256.387)" fill="#353535"/>
          <path id="Path_177" data-name="Path 177" d="M300.01,387.895S285.2,416.4,284.422,415.95,268.5,388.123,268.5,388.123l.9-14.8.015-.747,29.442-.452.005.112v.01Z" transform="translate(-176.45 -303.577)" fill="#c48d65"/>
          <path id="Path_178" data-name="Path 178" d="M331.565,359.062a5.955,5.955,0,0,1-3.673,2.118,7.32,7.32,0,0,1-1.392.137l.9-11.33a5.589,5.589,0,0,1,1.483-.7,2.914,2.914,0,0,1,3.307.925C334.05,352.525,333.369,356.7,331.565,359.062Z" transform="translate(-204.982 -292.257)" fill="#c48d65"/>
          <path id="Path_179" data-name="Path 179" d="M328.887,349.48a89.973,89.973,0,0,1-.447,9.033c-.1.528-.32,1.7-.544,2.855a7.31,7.31,0,0,1-1.392.137l.9-11.33a5.244,5.244,0,0,1,1.483-.7Z" transform="translate(-204.984 -292.44)" fill="#aa734f"/>
          <path id="Path_180" data-name="Path 180" d="M264.958,361.323a6.906,6.906,0,0,1-1.539-.163,5.93,5.93,0,0,1-3.531-2.088c-1.809-2.368-2.479-6.539-.622-8.845a2.939,2.939,0,0,1,3.414-.889,5.413,5.413,0,0,1,1.372.661Z" transform="translate(-171.363 -292.261)" fill="#c48d65"/>
          <path id="Path_181" data-name="Path 181" d="M269.331,361.535a6.9,6.9,0,0,1-1.539-.163c-.137-.6-.269-1.275-.376-1.976a94.883,94.883,0,0,1-.363-9.846,5.412,5.412,0,0,1,1.372.661Z" transform="translate(-175.736 -292.474)" fill="#aa734f"/>
          <path id="Path_182" data-name="Path 182" d="M299.733,372.232v.01a45.267,45.267,0,0,1-.674,4.583c-.782,3.272-8.84,12.824-13.88,13.164s-12.762-8.769-14.109-12.254a19.534,19.534,0,0,1-.8-4.415l.015-.747,29.442-.452Z" transform="translate(-177.319 -303.577)" fill="#aa734f"/>
          <path id="Path_183" data-name="Path 183" d="M300.034,329.852s-.452,12.508-1.24,15.775-9.242,11.944-14.312,12.28-13.408-8.114-14.759-11.6-.674-16.791-.674-16.791a13.743,13.743,0,0,0,4.959-4.618l1.692-2.931s7.662-.112,10.929-4.283c0,0,2.027,4.959,9.689,4.847C296.317,322.527,296.087,327.714,300.034,329.852Z" transform="translate(-176.637 -276.796)" fill="#c48d65"/>
          <path id="Path_184" data-name="Path 184" d="M280.975,348a1.024,1.024,0,0,1,.229-.457.942.942,0,0,1,.363-.345c.015-.01.036-.015.052-.025a1.381,1.381,0,0,1,.4-.2,1.424,1.424,0,0,1,.773,0,1.545,1.545,0,0,1,.65.4,2.435,2.435,0,0,1,.234.311.2.2,0,0,1,.031.056,1.857,1.857,0,0,1,.207.793,2.368,2.368,0,0,1-.052.508.859.859,0,0,1-.031.156,1.659,1.659,0,0,1-.167.442,1.55,1.55,0,0,1-.518.554,1.382,1.382,0,0,1-.716.207,1.22,1.22,0,0,1-.427-.056,1.5,1.5,0,0,1-.381-.167,2.161,2.161,0,0,1-.294-.239.31.31,0,0,1-.04-.04,1.706,1.706,0,0,1-.376-.674,2.517,2.517,0,0,1-.061-.437.276.276,0,0,1,0-.091,2.413,2.413,0,0,1,.131-.692Z" transform="translate(-182.521 -291.183)" fill="#353535"/>
          <path id="Path_185" data-name="Path 185" d="M295.809,348.07c-.076.112-2.647,7.006-2.159,9.3s4.826,1.784,5.467,1.184a1.418,1.418,0,0,0,.488-1.275l-4.847-.341Z" transform="translate(-188.792 -291.746)" fill="#aa734f"/>
          <path id="Path_186" data-name="Path 186" d="M313.41,348a1.024,1.024,0,0,1,.229-.457A.942.942,0,0,1,314,347.2c.015-.01.036-.015.052-.025a1.378,1.378,0,0,1,.4-.2,1.425,1.425,0,0,1,.773,0,1.544,1.544,0,0,1,.65.4,2.422,2.422,0,0,1,.234.311.2.2,0,0,1,.031.056,1.857,1.857,0,0,1,.207.793,2.364,2.364,0,0,1-.052.508.862.862,0,0,1-.031.156,1.661,1.661,0,0,1-.167.442,1.55,1.55,0,0,1-.518.554,1.382,1.382,0,0,1-.716.207,1.22,1.22,0,0,1-.427-.056,1.5,1.5,0,0,1-.381-.167,2.161,2.161,0,0,1-.294-.239.314.314,0,0,1-.04-.04,1.7,1.7,0,0,1-.376-.674,2.518,2.518,0,0,1-.061-.437.276.276,0,0,1,0-.091,2.414,2.414,0,0,1,.131-.692Z" transform="translate(-198.476 -291.183)" fill="#353535"/>
          <path id="Path_187" data-name="Path 187" d="M299.839,356.418c-.881.071-1.768.112-2.652.1-.279-.005-.559-.01-.833-.04-.1-.01-.142-.015-.239-.031-.031-.005-.061-.015-.091-.02-.005-.071-.005-.147-.01-.218a15.387,15.387,0,0,1,.32-2.723c.188-1.077.406-2.149.64-3.214.132-.6.264-1.2.412-1.8.178-.737-.955-1.052-1.133-.315-.406,1.687-.773,3.389-1.067,5.1a16.579,16.579,0,0,0-.35,3,1.471,1.471,0,0,0,.29,1.016,2.113,2.113,0,0,0,1.348.391,21.867,21.867,0,0,0,3.363-.071C300.591,357.536,300.6,356.357,299.839,356.418Z" transform="translate(-189.402 -291.584)" fill="#353535"/>
          <path id="Path_188" data-name="Path 188" d="M263.111,354.486A10.676,10.676,0,0,1,264.574,356l.056-2.535s-1.748-1.463-2.931-.223-.844,3.607.112,5.294,1.97,2.759,1.86,2.083-1.352-2.647-1.58-4.116S262.552,354.09,263.111,354.486Z" transform="translate(-172.733 -294.047)" fill="#aa734f"/>
          <path id="Path_189" data-name="Path 189" d="M332.627,353.047a2.685,2.685,0,0,0-2.535.674l-.112,2.479s.9-1.352,1.519-1.407,1.24.452,1.184,1.915-1.575,3.94-1.407,4.283,2.083-2.027,2.423-3.719S333.922,353.555,332.627,353.047Z" transform="translate(-206.694 -294.132)" fill="#aa734f"/>
          <path id="Path_190" data-name="Path 190" d="M292.38,371.526a6.533,6.533,0,0,0,1.463,2.647c1.016.96,4.11.788,5.015.056a5.809,5.809,0,0,0,1.3-2.759Z" transform="translate(-188.197 -303.257)" fill="#fff"/>
          <path id="Path_191" data-name="Path 191" d="M282.706,339.137c-.8-.432-1.473-.853-4.06-.6s-3.422,1.448-2.866,1.748,2.444-.173,3.826-.087,2.952.808,3.6.254S283.046,339.32,282.706,339.137Z" transform="translate(-179.951 -287.02)" fill="#353535"/>
          <path id="Path_192" data-name="Path 192" d="M309.37,338.822a6.518,6.518,0,0,1,3.541-.422c1.89.127,3.831,1.428,3.2,1.89s-2.281-.127-3.681-.087-3.733.8-4.024.127S308.979,339.009,309.37,338.822Z" transform="translate(-196.053 -286.969)" fill="#353535"/>
          <path id="Path_193" data-name="Path 193" d="M265.972,371.167a1.866,1.866,0,1,1-1.86-2.027,1.95,1.95,0,0,1,1.86,2.027Z" transform="translate(-173.374 -302.111)" fill="#cc1f34"/>
          <path id="Path_194" data-name="Path 194" d="M299.072,411.75l-7.133,12.288q-5.647,9.716-11.289,19.434c-.7,1.209-1.407,2.419-2.109,3.629q-3.353-5.624-6.706-11.238L260.343,416.6q-1.311-2.2-2.617-4.385a.59.59,0,0,0-1.016.6q3.612,6.051,7.22,12.1l11.492,19.266,2.617,4.39a.595.595,0,0,0,1.016,0l7.133-12.288q5.647-9.716,11.289-19.434,1.3-2.248,2.611-4.491a.59.59,0,1,0-1.016-.6Z" transform="translate(-170.615 -322.93)" fill="#123e7f"/>
          <path id="Path_195" data-name="Path 195" d="M333.139,371.167a1.866,1.866,0,1,1-1.86-2.027,1.95,1.95,0,0,1,1.86,2.027Z" transform="translate(-206.415 -302.111)" fill="#cc1f34"/>
          <g id="Group_85" data-name="Group 85" transform="translate(83.667 77.911)">
            <path id="Path_196" data-name="Path 196" d="M260.784,390.56l-.249,4.049a13.648,13.648,0,0,0-1.844,2.292,10.58,10.58,0,0,0-.674,1.158c-.076.142-.142.285-.207.422-.031.061-.052.117-.081.178v.005a.018.018,0,0,0-.005.01l-.005.005v.005c0,.005,0,.005-.005.01v.01l-.005.005a21.639,21.639,0,0,0-.737,2.159,42,42,0,0,0-1.123,5.37,88.921,88.921,0,0,0-.915,11.97c-.031,1.824,0,3.643.076,5.467.031.94.071,1.875.117,2.82l-.269-.046a.644.644,0,0,1-.076-.015h-.01a.388.388,0,0,1-.066,0,9.883,9.883,0,0,0-1.86-.015c-.01,0-.015.005-.031.005h-.02l-.207.036a3.689,3.689,0,0,0-.386.076c-.036-.933-.076-1.866-.107-2.8-.087-2.617-.142-5.243-.036-7.881a81.624,81.624,0,0,1,1.336-12.615c.722-3.729,1.9-7.189,4.466-10.08a16.845,16.845,0,0,1,2.923-2.605Z" transform="translate(-252 -390.56)" fill="#cc1f34"/>
          </g>
          <g id="Group_86" data-name="Group 86" transform="translate(122.895 75.21)">
            <path id="Path_197" data-name="Path 197" d="M338.848,429.946a1.472,1.472,0,0,1-2.942,0c-.015-2-.061-4.009-.107-6.014-.1-3.806-.239-7.621-.457-11.426-.112-2.042-.254-4.09-.432-6.127-.081-1-.183-1.987-.29-2.982-.052-.483-.107-.965-.173-1.448-.061-.523-.071-.589-.127-.991-.533-3.8-1.519-7.809-3.912-10.684a12.836,12.836,0,0,0-.9-.98l-.294-4.049a15.718,15.718,0,0,1,4.049,3.938c2.576,3.485,3.47,7.713,4.029,11.914.544,4.085.823,8.2,1.047,12.316Q338.777,421.669,338.848,429.946Z" transform="translate(-329.21 -385.243)" fill="#cc1f34"/>
          </g>
          <circle id="Ellipse_25" data-name="Ellipse 25" cx="9.689" cy="9.689" r="9.689" transform="translate(120.994 115.107)" fill="#fff"/>
          <circle id="Ellipse_26" data-name="Ellipse 26" cx="5.858" cy="5.858" r="5.858" transform="translate(124.902 118.714)" fill="#353535"/>
          <circle id="Ellipse_27" data-name="Ellipse 27" cx="4.095" cy="4.095" r="4.095" transform="translate(126.664 120.477)" fill="#fff"/>
          <g id="Group_87" data-name="Group 87" transform="translate(71.563 110.958)">
            <path id="Path_198" data-name="Path 198" d="M254.846,485.832l-2.962-.087a83.727,83.727,0,0,0,.112-11q-.076-1.037-.2-2.074c-.031-.294-.1-.823-.117-.971,0-.005-.052-.35-.066-.412-.025-.152-.046-.3-.071-.457a33.149,33.149,0,0,0-.965-4.192c-.2-.645-.415-1.275-.671-1.9-.031-.071-.132-.3-.156-.381a.041.041,0,0,0-.005-.015.015.015,0,0,1,0-.01c-.036-.076-.127-.274-.147-.32-.127-.269-.264-.534-.406-.8a13.3,13.3,0,0,0-1.026-1.631c-.036-.052-.193-.239-.223-.285-.071-.087-.147-.183-.223-.264-.183-.207-.376-.406-.579-.6-.223-.218-.462-.412-.706-.61a.223.223,0,0,1-.036-.036h0a.628.628,0,0,1-.1-.066c-.117-.081-.239-.163-.366-.234q-.381-.233-.778-.432c-.1-.046-.193-.087-.29-.137h-.005a.015.015,0,0,0-.01-.005h-.005a.015.015,0,0,0-.01,0,1.86,1.86,0,0,1-.259-.1,9.034,9.034,0,0,0-.945-.264c-.066-.015-.137-.031-.2-.04l-.269-.046a.669.669,0,0,1-.076-.015h-.01a.4.4,0,0,1-.066,0,9.881,9.881,0,0,0-1.86-.015c-.01,0-.015,0-.031,0h-.02c-.066.01-.142.025-.207.036a3.7,3.7,0,0,0-.386.076c-.01,0-.015.005-.031.005-.269.071-.534.152-.8.239-.046.015-.081.031-.107.036h-.005c-.005.005-.01.01-.015.01-.127.066-.254.112-.376.178a6.963,6.963,0,0,0-.711.406c-.117.071-.229.152-.341.223-.005.005-.01.01-.015.01a.162.162,0,0,1-.031.025c-.036.036-.076.066-.112.1a7.248,7.248,0,0,0-.6.518c-.218.207-.432.432-.63.655-.076.087-.152.178-.229.269-.01.005-.015.015-.031.031,0,.005-.005.005-.005.01h-.005c0,.005-.005.01-.01.015a1.6,1.6,0,0,1-.112.147,19.223,19.223,0,0,0-1.89,3.266c-.005,0-.005.01-.01.015s-.005.01-.01.025v.005c-.005.005-.005.015-.01.025s-.005.005-.005.01a1.126,1.126,0,0,0-.061.137c-.061.152-.122.3-.188.457-.122.311-.234.625-.35.93-.223.64-.432,1.29-.622,1.936a41.388,41.388,0,0,0-.965,4.08c-.127.681-.239,1.372-.345,2.068-.01.076-.046.311-.061.406a.054.054,0,0,1,0,.025v.015c-.01.081-.031.249-.04.29-.04.32-.081.64-.117.965a67.99,67.99,0,0,0-.513,9.044l-2.947-.087a64.131,64.131,0,0,1,.9-11.787,41.1,41.1,0,0,1,2.088-8.287,17.4,17.4,0,0,1,4.364-6.92,9.626,9.626,0,0,1,4.842-2.3,9.847,9.847,0,0,1,2.916-.052,10.59,10.59,0,0,1,6.869,3.785c3.76,4.608,4.583,11.06,4.867,16.731a64.169,64.169,0,0,1-.2,9.633Z" transform="translate(-228.175 -455.603)" fill="#cc1f34"/>
          </g>
          <path id="Path_199" data-name="Path 199" d="M226.794,557.445a2.7,2.7,0,0,1,.32,3.882,2.966,2.966,0,0,1-4.039-.3,2.694,2.694,0,0,1-.32-3.882,2.965,2.965,0,0,1,4.039.3Z" transform="translate(-153.608 -394.27)" fill="#353535"/>
          <path id="Path_200" data-name="Path 200" d="M276.926,557.445a2.7,2.7,0,0,0-.32,3.882,2.966,2.966,0,0,0,4.039-.3,2.694,2.694,0,0,0,.32-3.882,2.965,2.965,0,0,0-4.039.3Z" transform="translate(-180.1 -394.27)" fill="#353535"/>
          <path id="Path_201" data-name="Path 201" d="M198.519,522.144c-.6,5.258-.6,12.62-.6,12.62h4.506l-2.555-29.6S199.119,516.886,198.519,522.144Z" transform="translate(-141.729 -369.029)" fill="#2f5184"/>
          <path id="Path_202" data-name="Path 202" d="M387.7,501.91l-2.4,29h5.558Z" transform="translate(-233.908 -367.426)" fill="#e2ac7f"/>
          <path id="Path_203" data-name="Path 203" d="M328.259,527.094a23.625,23.625,0,0,1-17.879-8.261s7.662,11.721,18.778,10.669,15.623-13.971,15.623-13.971S339.828,527.094,328.259,527.094Z" transform="translate(-197.052 -374.126)" fill="#2f5184"/>
        </g>
      </g>
      <g id="Group_90" data-name="Group 90" transform="translate(277.598 264.183)">
        <path id="Path_205" data-name="Path 205" d="M305.009,195.354c-6.773-2.21-12.844,4.552-13.865,5.766-1.021-1.214-7.093-7.977-13.865-5.766-7.428,2.423-8.464,11.243-5.365,17.42,2.952,5.883,17.5,16.156,19.23,15.973,1.728.183,16.283-10.09,19.23-15.973C313.473,206.6,312.441,197.777,305.009,195.354Z" transform="translate(-270.275 -194.913)" fill="#cc1f34"/>
        <path id="Path_206" data-name="Path 206" d="M311.616,217.55h-5.7v-5.7H300.7v5.7H295v5.218h5.7v5.7h5.218v-5.7h5.7Z" transform="translate(-282.436 -203.245)" fill="#fff"/>
      </g>
      <g id="Group_91" data-name="Group 91" transform="translate(375.672 351.292)">
        <path id="Path_207" data-name="Path 207" d="M495.318,389.818a7.211,7.211,0,0,1-9.954,2.074l-18.8-12.321a7.19,7.19,0,0,1,7.881-12.028l18.8,12.321a7.218,7.218,0,0,1,2.073,9.954Z" transform="translate(-463.309 -366.367)" fill="#fff"/>
        <path id="Path_208" data-name="Path 208" d="M484.172,373.926l-7.881,12.028-9.729-6.377a7.19,7.19,0,0,1,7.881-12.028Z" transform="translate(-463.31 -366.369)" fill="#457bc9"/>
      </g>
      <g id="Group_93" data-name="Group 93" transform="translate(347.125 297.894)">
        <path id="Path_209" data-name="Path 209" d="M442.262,261.9l-30.814,13.835a7.362,7.362,0,0,0-3.688,9.7h0a7.358,7.358,0,0,0,9.7,3.688l30.814-13.835a7.358,7.358,0,0,0,3.688-9.7h0a7.355,7.355,0,0,0-9.7-3.692Z" transform="translate(-407.122 -261.265)" fill="#fff"/>
        <rect id="Rectangle_12" data-name="Rectangle 12" width="12.61" height="18.951" transform="translate(28.791 4.621) rotate(65.793)" fill="#ddd"/>
        <rect id="Rectangle_13" data-name="Rectangle 13" width="17.264" height="11.391" transform="translate(12.535 12.596) rotate(-24.207)" fill="#fff"/>
        <g id="Group_92" data-name="Group 92" transform="translate(15.578 8.273)">
          <path id="Path_210" data-name="Path 210" d="M439.047,287.037a.654.654,0,1,1-.367-.348A.654.654,0,0,1,439.047,287.037Z" transform="translate(-437.785 -282.024)" fill="#ddd"/>
          <path id="Path_211" data-name="Path 211" d="M444.357,298.862a.654.654,0,1,1-.367-.348.654.654,0,0,1,.367.348Z" transform="translate(-440.396 -287.841)" fill="#ddd"/>
          <path id="Path_212" data-name="Path 212" d="M449.177,282.492a.654.654,0,1,1-.368-.349.661.661,0,0,1,.368.349Z" transform="translate(-442.768 -279.788)" fill="#ddd"/>
          <path id="Path_213" data-name="Path 213" d="M454.5,294.313a.658.658,0,1,1-.368-.347.658.658,0,0,1,.368.347Z" transform="translate(-445.385 -285.604)" fill="#ddd"/>
          <path id="Path_214" data-name="Path 214" d="M459.317,277.938a.658.658,0,1,1-.368-.347.658.658,0,0,1,.368.347Z" transform="translate(-447.756 -277.548)" fill="#ddd"/>
          <path id="Path_215" data-name="Path 215" d="M464.627,289.762a.654.654,0,1,1-.368-.349.661.661,0,0,1,.368.349Z" transform="translate(-450.368 -283.364)" fill="#ddd"/>
          <path id="Path_216" data-name="Path 216" d="M457.287,285.975a.66.66,0,1,1-.369-.346.66.66,0,0,1,.369.346Z" transform="translate(-446.757 -281.503)" fill="#ddd"/>
          <path id="Path_217" data-name="Path 217" d="M446.777,290.712a.654.654,0,1,1-.368-.349.661.661,0,0,1,.368.349Z" transform="translate(-441.587 -283.832)" fill="#ddd"/>
        </g>
      </g>
      <g id="Group_104" data-name="Group 104" transform="translate(235.381 470.958)">
        <path id="Path_218" data-name="Path 218" d="M230.829,615.08l-9.8-12.288a2.359,2.359,0,0,0-3.318-.376l-29.643,23.638a2.359,2.359,0,0,0-.376,3.318l9.8,12.288a2.359,2.359,0,0,0,3.318.376L230.45,618.4a2.359,2.359,0,0,0,.378-3.321Z" transform="translate(-187.182 -601.901)" fill="#a5d3ef"/>
        <path id="Path_219" data-name="Path 219" d="M230.137,619.536a.259.259,0,0,0-.363-.04L200.7,642.679a.259.259,0,1,0,.32.4L230.094,619.9a.259.259,0,0,0,.043-.361Z" transform="translate(-193.77 -610.529)" fill="#c9e7f4"/>
        <g id="Group_94" data-name="Group 94" transform="translate(28.167 3.441)">
          <path id="Path_220" data-name="Path 220" d="M247.641,614.18a3.09,3.09,0,0,1-5.015-2.5,3.521,3.521,0,0,1,.056-.513,3.093,3.093,0,0,1,6.126.691,3.378,3.378,0,0,1-.056.508,3.167,3.167,0,0,1-1.111,1.819Z" transform="translate(-242.623 -608.674)" fill="#fff"/>
          <path id="Path_221" data-name="Path 221" d="M248.742,614.769l-6.122-.686a3.521,3.521,0,0,1,.056-.513l6.127.691a3.455,3.455,0,0,1-.061.508Z" transform="translate(-242.62 -611.083)" fill="#ddd"/>
        </g>
        <g id="Group_95" data-name="Group 95" transform="translate(34.456 11.327)">
          <path id="Path_222" data-name="Path 222" d="M260.023,629.7a3.09,3.09,0,0,1-5.015-2.5,3.521,3.521,0,0,1,.056-.513,3.093,3.093,0,0,1,6.126.691,3.382,3.382,0,0,1-.056.508,3.111,3.111,0,0,1-1.111,1.814Z" transform="translate(-255.004 -624.194)" fill="#fff"/>
          <path id="Path_223" data-name="Path 223" d="M261.122,630.288,255,629.6a3.524,3.524,0,0,1,.056-.513l6.127.691A2.84,2.84,0,0,1,261.122,630.288Z" transform="translate(-255 -626.603)" fill="#ddd"/>
        </g>
        <g id="Group_96" data-name="Group 96" transform="translate(22.12 8.263)">
          <path id="Path_224" data-name="Path 224" d="M235.733,623.67a3.09,3.09,0,0,1-5.015-2.5,3.525,3.525,0,0,1,.056-.513,3.093,3.093,0,0,1,6.126.691,3.375,3.375,0,0,1-.056.508,3.115,3.115,0,0,1-1.111,1.814Z" transform="translate(-230.718 -618.164)" fill="#fff"/>
          <path id="Path_225" data-name="Path 225" d="M236.842,624.259l-6.122-.686a3.521,3.521,0,0,1,.056-.513l6.127.691A4.321,4.321,0,0,1,236.842,624.259Z" transform="translate(-230.719 -620.573)" fill="#ddd"/>
        </g>
        <g id="Group_97" data-name="Group 97" transform="translate(28.409 16.153)">
          <path id="Path_226" data-name="Path 226" d="M248.113,639.2a3.09,3.09,0,0,1-5.015-2.5,3.522,3.522,0,0,1,.056-.513,3.093,3.093,0,0,1,6.126.691,3.38,3.38,0,0,1-.056.508,3.115,3.115,0,0,1-1.111,1.819Z" transform="translate(-243.098 -633.694)" fill="#fff"/>
          <path id="Path_227" data-name="Path 227" d="M249.222,639.788,243.1,639.1a3.521,3.521,0,0,1,.056-.513l6.127.691a4.454,4.454,0,0,1-.061.51Z" transform="translate(-243.099 -636.102)" fill="#ddd"/>
        </g>
        <g id="Group_98" data-name="Group 98" transform="translate(16.069 13.084)">
          <path id="Path_228" data-name="Path 228" d="M223.833,633.16a3.09,3.09,0,0,1-5.015-2.5,3.522,3.522,0,0,1,.056-.513,3.093,3.093,0,0,1,6.126.691,3.383,3.383,0,0,1-.056.508,3.126,3.126,0,0,1-1.111,1.814Z" transform="translate(-218.814 -627.654)" fill="#fff"/>
          <path id="Path_229" data-name="Path 229" d="M224.932,633.749l-6.122-.686a3.525,3.525,0,0,1,.056-.513l6.127.691a2.832,2.832,0,0,1-.061.508Z" transform="translate(-218.81 -630.063)" fill="#ddd"/>
        </g>
        <g id="Group_99" data-name="Group 99" transform="translate(22.359 20.973)">
          <path id="Path_230" data-name="Path 230" d="M236.213,648.687a3.09,3.09,0,0,1-5.015-2.5,3.515,3.515,0,0,1,.056-.513,3.093,3.093,0,0,1,6.126.691,3.384,3.384,0,0,1-.056.508,3.141,3.141,0,0,1-1.111,1.819Z" transform="translate(-231.194 -643.181)" fill="#fff"/>
          <path id="Path_231" data-name="Path 231" d="M237.313,649.279l-6.123-.686a3.518,3.518,0,0,1,.056-.513l6.127.691a2.885,2.885,0,0,1-.06.508Z" transform="translate(-231.19 -645.591)" fill="#ddd"/>
        </g>
        <g id="Group_100" data-name="Group 100" transform="translate(10.022 17.906)">
          <path id="Path_232" data-name="Path 232" d="M211.923,642.649a3.09,3.09,0,0,1-5.015-2.5,3.519,3.519,0,0,1,.056-.513,3.093,3.093,0,0,1,6.126.691,3.376,3.376,0,0,1-.056.508A3.085,3.085,0,0,1,211.923,642.649Z" transform="translate(-206.908 -637.144)" fill="#fff"/>
          <path id="Path_233" data-name="Path 233" d="M213.032,643.239l-6.122-.686a3.516,3.516,0,0,1,.056-.513l6.127.691a4.2,4.2,0,0,1-.061.508Z" transform="translate(-206.909 -639.553)" fill="#ddd"/>
        </g>
        <g id="Group_101" data-name="Group 101" transform="translate(16.313 25.796)">
          <path id="Path_234" data-name="Path 234" d="M224.313,658.18a3.09,3.09,0,0,1-5.015-2.5,3.519,3.519,0,0,1,.056-.513,3.093,3.093,0,0,1,6.126.691,3.376,3.376,0,0,1-.056.508,3.152,3.152,0,0,1-1.111,1.814Z" transform="translate(-219.294 -652.674)" fill="#fff"/>
          <path id="Path_235" data-name="Path 235" d="M225.413,658.769l-6.123-.686a3.522,3.522,0,0,1,.056-.513l6.127.691a3.466,3.466,0,0,1-.06.508Z" transform="translate(-219.29 -655.082)" fill="#ddd"/>
        </g>
        <g id="Group_102" data-name="Group 102" transform="translate(3.712 22.941)">
          <path id="Path_236" data-name="Path 236" d="M199.5,652.559a3.09,3.09,0,0,1-5.015-2.5,3.515,3.515,0,0,1,.056-.513,3.093,3.093,0,0,1,6.126.691,3.381,3.381,0,0,1-.056.508,3.115,3.115,0,0,1-1.111,1.814Z" transform="translate(-194.488 -647.054)" fill="#fff"/>
          <path id="Path_237" data-name="Path 237" d="M200.613,653.149l-6.123-.686a3.526,3.526,0,0,1,.056-.513l6.127.691a4.33,4.33,0,0,1-.06.508Z" transform="translate(-194.489 -649.463)" fill="#ddd"/>
        </g>
        <g id="Group_103" data-name="Group 103" transform="translate(10.002 30.83)">
          <path id="Path_238" data-name="Path 238" d="M211.883,668.086a3.09,3.09,0,0,1-5.015-2.5,3.527,3.527,0,0,1,.056-.513,3.093,3.093,0,0,1,6.126.691,3.382,3.382,0,0,1-.056.508,3.115,3.115,0,0,1-1.111,1.819Z" transform="translate(-206.868 -662.581)" fill="#fff"/>
          <path id="Path_239" data-name="Path 239" d="M212.992,668.679l-6.122-.686a3.521,3.521,0,0,1,.056-.513l6.127.691A4.464,4.464,0,0,1,212.992,668.679Z" transform="translate(-206.869 -664.991)" fill="#ddd"/>
        </g>
      </g>
      <g id="Group_108" data-name="Group 108" transform="translate(173.347 361.248)">
        <g id="Group_105" data-name="Group 105" transform="translate(4.651)">
          <path id="Path_240" data-name="Path 240" d="M89.486,393.582a7.629,7.629,0,0,1-12.547,5.828,8.841,8.841,0,0,1-.9-.894A7.633,7.633,0,0,1,86.79,387.76a7.829,7.829,0,0,1,.894.894,7.616,7.616,0,0,1,1.8,4.928Z" transform="translate(-74.237 -385.962)" fill="#fff"/>
          <path id="Path_241" data-name="Path 241" d="M89.408,390.394,78.66,401.145a8.838,8.838,0,0,1-.9-.894L88.511,389.5a7.484,7.484,0,0,1,.9.894Z" transform="translate(-75.969 -387.703)" fill="#ddd"/>
        </g>
        <g id="Group_106" data-name="Group 106" transform="translate(18.638 18.514)">
          <path id="Path_242" data-name="Path 242" d="M117.016,430.023a7.629,7.629,0,0,1-12.547,5.828,8.834,8.834,0,0,1-.9-.894A7.633,7.633,0,0,1,114.32,424.2a7.822,7.822,0,0,1,.894.894,7.616,7.616,0,0,1,1.8,4.929Z" transform="translate(-101.768 -422.404)" fill="#fff"/>
          <path id="Path_243" data-name="Path 243" d="M116.94,426.834l-10.746,10.75a8.841,8.841,0,0,1-.9-.894l10.751-10.751a7.871,7.871,0,0,1,.895.9Z" transform="translate(-103.501 -424.143)" fill="#ddd"/>
        </g>
        <g id="Group_107" data-name="Group 107" transform="translate(0 17.427)">
          <path id="Path_244" data-name="Path 244" d="M74.17,435.377a7.631,7.631,0,0,1-8.124-11.2,8.149,8.149,0,0,1,.706-1.057,7.628,7.628,0,0,1,12.61,8.49,7.763,7.763,0,0,1-.706,1.052A7.6,7.6,0,0,1,74.17,435.377Z" transform="translate(-65.083 -420.264)" fill="#fff"/>
          <path id="Path_245" data-name="Path 245" d="M79.6,435.411l-12.61-8.485a8.138,8.138,0,0,1,.706-1.057l12.615,8.495A8.621,8.621,0,0,1,79.6,435.411Z" transform="translate(-66.021 -423.022)" fill="#ddd"/>
        </g>
      </g>
      <g id="Group_109" data-name="Group 109" transform="translate(205.524 291.919)">
        <path id="Path_246" data-name="Path 246" d="M162.808,295.678l-18.457,8.5a2.308,2.308,0,0,1-3.079-1.082l-12.59-27.344a2.971,2.971,0,0,1,.04-2.55l3.3-6.747,10.141-4.669,7.27,1.885A2.987,2.987,0,0,1,151.4,265.3l12.59,27.344a2.312,2.312,0,0,1-1.181,3.037Z" transform="translate(-128.415 -255.543)" fill="#fff"/>
        <rect id="Rectangle_14" data-name="Rectangle 14" width="11.162" height="4.547" transform="translate(1.71 6.778) rotate(-24.719)" fill="#fff"/>
        <path id="Path_247" data-name="Path 247" d="M141.54,253.866l-9.821,4.522a.754.754,0,0,1-1-.371l-1.348-2.922a.754.754,0,0,1,.371-1l9.821-4.521a.754.754,0,0,1,1,.371l1.348,2.922a.753.753,0,0,1-.371,1Z" transform="translate(-128.851 -249.504)" fill="#457bc9"/>
        <rect id="Rectangle_15" data-name="Rectangle 15" width="20.541" height="17.32" transform="translate(4.734 24.562) rotate(-24.719)" fill="#457bc9"/>
        <path id="Path_248" data-name="Path 248" d="M161.677,295.377l-3.165,1.458-1.458-3.165-2.9,1.331,1.458,3.165-3.165,1.458,1.336,2.9,3.165-1.458,1.458,3.165,2.9-1.331-1.458-3.165,3.165-1.458Z" transform="translate(-140.238 -271.231)" fill="#fff"/>
      </g>
      <path id="Path_249" data-name="Path 249" d="M103.551,544.235c0-.778,1.072-8.368,1.555-10.9s1.849-9.242.584-11.091a3.893,3.893,0,0,0-4.766-1.072c-2.139,1.072-2.916,8.952-3.5,9.049s-1.849-5.254-2.53-8.464-1.849-8.754-2.82-9.436-3.892-.584-4.862.874-.584,4.181-.29,6.127.971,5.35.971,5.35-3.6-10.12-4.379-11.381-3.892-1.169-5.157-.29A3.511,3.511,0,0,0,77,516.213a85.4,85.4,0,0,0,2.82,8.464c.778,1.849.874,2.139.874,2.139s-4.767-7.2-5.936-8.173-3.307-.29-4.283.681a4.038,4.038,0,0,0-.584,3.7c.29.782,4.862,7.489,4.862,7.489s-4.964-4.085-6.325-4.476a3.182,3.182,0,0,0-3.5,2.434c-.193,1.458,1.265,3.114,3.8,5.838A114.317,114.317,0,0,1,76.5,544.23c1.555,2.236,3.4,3.989,3.989,4.766s4.766,14.3,4.766,14.3l21.205-5.446C106.472,557.856,103.551,545.012,103.551,544.235Z" transform="translate(108.352 -86.675)" fill="#49a3db"/>
      <g id="Group_111" data-name="Group 111" transform="translate(306.988 462.462)">
        <path id="Path_250" data-name="Path 250" d="M371.017,622.5l-2.256,2.454a3.146,3.146,0,0,1-4.43.341l-22.99-21.153a6.35,6.35,0,0,1-1.494-2.078l-3.129-6.341a8.52,8.52,0,0,0-1.895-2.53l-2.937-2.7-3.43-3.163a1.241,1.241,0,0,1,1.676-1.821l6.351,5.843a8.578,8.578,0,0,0,2.713,1.687l6.569,2.556a6.29,6.29,0,0,1,2.245,1.331l22.968,21.13a3.136,3.136,0,0,1,.037,4.442Z" transform="translate(-328.123 -585.209)" fill="#fff"/>
        <path id="Path_251" data-name="Path 251" d="M369.991,620.185l-8.185-7.529a.969.969,0,0,0-1.367.04l-2.139,2.327a.965.965,0,0,0,.071,1.361l8.185,7.53a.969.969,0,0,0,1.367-.04l2.139-2.327A.965.965,0,0,0,369.991,620.185Z" transform="translate(-342.847 -598.566)" fill="#457bc9"/>
        <path id="Path_252" data-name="Path 252" d="M333.605,588.61l-1.682,1.829-3.43-3.163a1.241,1.241,0,0,1,1.677-1.824Z" transform="translate(-328.136 -585.176)" fill="#ddd"/>
        <path id="Path_253" data-name="Path 253" d="M402.863,651.314l-2.256,2.454a3.146,3.146,0,0,1-4.43.341l-3.318-3.054,6.658-7.235,3.318,3.053a3.14,3.14,0,0,1,.028,4.441Z" transform="translate(-359.969 -614.026)" fill="#457bc9"/>
        <g id="Group_110" data-name="Group 110" transform="translate(27.487 25.092)">
          <path id="Path_254" data-name="Path 254" d="M383.371,640.726a3.549,3.549,0,1,1,5.015-.207A3.549,3.549,0,0,1,383.371,640.726Z" transform="translate(-382.226 -634.566)" fill="#457bc9"/>
          <path id="Path_255" data-name="Path 255" d="M388.524,640.7a2.93,2.93,0,1,1-.173-4.141,2.93,2.93,0,0,1,.173,4.141Z" transform="translate(-382.822 -635.166)" fill="#fff"/>
        </g>
      </g>
      <g id="Group_115" data-name="Group 115" transform="translate(362.464 406.693)">
        <g id="Group_112" data-name="Group 112" transform="translate(0 39.969)">
          <path id="Path_256" data-name="Path 256" d="M439.47,554.384a20.315,20.315,0,0,0-1.717,4.857c-.671,2.972-.722,6.3.884,9.069A13.449,13.449,0,0,0,449,575.01a11.374,11.374,0,0,0,8.814-3.4,21.017,21.017,0,0,0,4.151-5.33c.376-.7-.732-1.341-1.107-.64a19.9,19.9,0,0,1-2.9,4.009c-1.951,2.129-4.471,4.014-7.53,4.148a11.83,11.83,0,0,1-9.933-4.928,10.757,10.757,0,0,1-1.631-8.647,18.812,18.812,0,0,1,1.728-5.192c.356-.711-.752-1.352-1.118-.646Z" transform="translate(-437.312 -554.079)" fill="#fff"/>
        </g>
        <g id="Group_113" data-name="Group 113" transform="translate(20.889)">
          <path id="Path_257" data-name="Path 257" d="M478.525,483.087a20.357,20.357,0,0,1,3.348-3.912c2.241-2.063,5.091-3.77,8.3-3.765a13.447,13.447,0,0,1,10.979,5.624,11.38,11.38,0,0,1,1.458,9.332,21.044,21.044,0,0,1-2.54,6.254c-.415.674-1.529.036-1.107-.64a19.867,19.867,0,0,0,2.022-4.511c.869-2.754,1.24-5.878-.167-8.6a11.841,11.841,0,0,0-9.231-6.142,10.761,10.761,0,0,0-8.307,2.906,19.1,19.1,0,0,0-3.638,4.09c-.432.671-1.544.031-1.113-.64Z" transform="translate(-478.427 -475.41)" fill="#fff"/>
        </g>
        <path id="Path_258" data-name="Path 258" d="M459.947,489.553l-18.275,31.635a1.492,1.492,0,0,0,.65,2.007l20.145,11.635a1.5,1.5,0,0,0,2.063-.442L482.8,502.75a1.492,1.492,0,0,0-.65-2.007l-20.145-11.632a1.5,1.5,0,0,0-2.058.442Z" transform="translate(-439.376 -482.033)" fill="#49a3db"/>
        <g id="Group_114" data-name="Group 114" transform="translate(9.236 10.723)">
          <path id="Path_259" data-name="Path 259" d="M474.868,496.554q-3.284,5.708-6.574,11.416-5.2,9.031-10.4,18.067-1.2,2.074-2.388,4.148c-.076.127.311.356.386.229q3.284-5.708,6.574-11.416,5.2-9.033,10.4-18.069,1.2-2.074,2.388-4.148C475.33,496.656,474.944,496.427,474.868,496.554Z" transform="translate(-455.491 -496.517)" fill="#457bc9"/>
          <path id="Path_260" data-name="Path 260" d="M488.778,504.744q-3.284,5.708-6.574,11.416-5.2,9.031-10.4,18.067-1.2,2.074-2.388,4.148c-.076.127.311.356.386.229q3.284-5.708,6.574-11.416,5.2-9.031,10.4-18.067,1.2-2.074,2.388-4.148C489.24,504.846,488.854,504.617,488.778,504.744Z" transform="translate(-462.334 -500.546)" fill="#457bc9"/>
        </g>
      </g>
      <path id="Path_890" data-name="Path 890" d="M-79.775-32.056h4.842q3.034,0,4.148,1.265a4.34,4.34,0,0,1,1.113,2.959,3.733,3.733,0,0,1-.4,1.815,5.487,5.487,0,0,1-1.3,1.5,4.416,4.416,0,0,1,2.437,1.754,4.635,4.635,0,0,1,.715,2.476,4.355,4.355,0,0,1-1.58,3.571,6.809,6.809,0,0,1-4.414,1.28h-5.563Zm3.582,2.785v3.645h.819a2.147,2.147,0,0,0,1.525-.578,1.879,1.879,0,0,0,.617-1.429,1.433,1.433,0,0,0-.605-1.162,2.369,2.369,0,0,0-1.512-.476Zm0,6.468v4.582h1.283q2.944,0,2.944-2.158a2.26,2.26,0,0,0-.717-1.8,3.017,3.017,0,0,0-2.051-.628Zm20.176,2.7h-7.759a2.617,2.617,0,0,0,.69,1.711,1.959,1.959,0,0,0,1.462.656,2.632,2.632,0,0,0,2.342-1.355l2.974.985a5.527,5.527,0,0,1-5.151,2.9,5.45,5.45,0,0,1-4.089-1.555,5.742,5.742,0,0,1-1.519-4.19,5.41,5.41,0,0,1,1.6-3.975,5.347,5.347,0,0,1,3.94-1.607,5.152,5.152,0,0,1,3.93,1.69,5.95,5.95,0,0,1,1.576,4.221ZM-63.75-22.28h4.379q-.456-2.038-2.088-2.038a2.281,2.281,0,0,0-1.551.531,2.3,2.3,0,0,0-.74,1.5Zm18.025-2.506-2.2,1.342a2.656,2.656,0,0,0-1.78-.962,1.1,1.1,0,0,0-.7.227.682.682,0,0,0-.293.555.881.881,0,0,0,.338.77,9.336,9.336,0,0,0,1.8.742,6.369,6.369,0,0,1,2.3,1.287,2.83,2.83,0,0,1,.842,2.178,3,3,0,0,1-1.266,2.411,4.731,4.731,0,0,1-3.038,1.006,4.864,4.864,0,0,1-2.4-.669,5.6,5.6,0,0,1-2.031-2.051l2.62-1.19q.886,1.529,1.835,1.529a1.192,1.192,0,0,0,.772-.277.8.8,0,0,0,.342-.631.755.755,0,0,0-.392-.689,1.341,1.341,0,0,0-.582-.235,3.681,3.681,0,0,0-.911-.355q-3.266-1.065-3.266-3.458a2.868,2.868,0,0,1,1.171-2.361,4.812,4.812,0,0,1,3.059-.918,5.173,5.173,0,0,1,3.783,1.747Zm3.05-5.267h3.241v3.733h1.555v2.974h-1.555v7.913h-3.24v-7.911h-1.241V-26.32h1.241ZM-123.451-3.541h5.671a7.763,7.763,0,0,1,5.848,2.291,8.32,8.32,0,0,1,2.215,6.038A8.106,8.106,0,0,1-112,10.813a8.261,8.261,0,0,1-6.082,2.266h-5.366Zm3.608,3.14V9.865h1.417a5.4,5.4,0,0,0,3.62-1.2,5,5,0,0,0,1.417-4.012,5.967,5.967,0,0,0-.683-2.892A3.5,3.5,0,0,0-116.053.047,7.56,7.56,0,0,0-118.527-.4Zm12.48,8.063a5.544,5.544,0,0,1,1.607-4.114,5.61,5.61,0,0,1,4.127-1.6A5.275,5.275,0,0,1-97.7,3.579a5.543,5.543,0,0,1,1.589,4.032A5.585,5.585,0,0,1-97.7,11.687a5.345,5.345,0,0,1-3.981,1.62,5.26,5.26,0,0,1-4.19-1.715,5.812,5.812,0,0,1-1.494-3.93Zm8.063,0a2.827,2.827,0,0,0-.722-1.924,2.181,2.181,0,0,0-1.683-.823,2.277,2.277,0,0,0-1.721.772,2.613,2.613,0,0,0-.722,1.848,2.943,2.943,0,0,0,.715,2,2.211,2.211,0,0,0,1.728.823,2.2,2.2,0,0,0,1.683-.8,2.741,2.741,0,0,0,.722-1.9Zm13.885,1.646v3.24a7.051,7.051,0,0,1-2.772.76,5.612,5.612,0,0,1-4.1-1.62,5.452,5.452,0,0,1-1.645-4.052,5.651,5.651,0,0,1,1.525-4.05A5.1,5.1,0,0,1-88.54,1.978a7.042,7.042,0,0,1,3.163.76V5.8a6.045,6.045,0,0,0-2.592-.683,2.37,2.37,0,0,0-1.754.665,2.37,2.37,0,0,0-.665,1.753,2.366,2.366,0,0,0,.658,1.74A2.333,2.333,0,0,0-88,9.94a7.518,7.518,0,0,0,2.583-.633Zm2.57-10.849h3.24V2.192h1.555V5.166H-79.6v7.913h-3.24V5.168h-1.241V2.192h1.241Zm6.444,9.2a5.544,5.544,0,0,1,1.607-4.114,5.61,5.61,0,0,1,4.126-1.6,5.275,5.275,0,0,1,3.93,1.626A5.543,5.543,0,0,1-65.152,7.6a5.585,5.585,0,0,1-1.589,4.076,5.345,5.345,0,0,1-3.981,1.62,5.26,5.26,0,0,1-4.19-1.715A5.813,5.813,0,0,1-76.4,7.662Zm8.063,0a2.827,2.827,0,0,0-.722-1.924,2.181,2.181,0,0,0-1.683-.823,2.277,2.277,0,0,0-1.721.772,2.613,2.613,0,0,0-.722,1.848,2.943,2.943,0,0,0,.715,2,2.211,2.211,0,0,0,1.728.823,2.2,2.2,0,0,0,1.683-.8,2.741,2.741,0,0,0,.721-1.892Zm9.074-5.47V3.8h.052a4.311,4.311,0,0,1,1.12-1.285,2.037,2.037,0,0,1,1.185-.472,3.193,3.193,0,0,1,.595.052V5.638a4.321,4.321,0,0,0-.8-.076,1.857,1.857,0,0,0-1.551.7,3.121,3.121,0,0,0-.551,1.97v4.845H-62.5V2.192Zm18.341,7.875h4.608v3.013H-47.592l5.506-7a17.756,17.756,0,0,0,1.715-2.532A4.036,4.036,0,0,0-39.858,1.7,2.088,2.088,0,0,0-40.469.16,2.088,2.088,0,0,0-42.01-.451a1.687,1.687,0,0,0-1.544.766,5.263,5.263,0,0,0-.582,2.4h-3.582A5.854,5.854,0,0,1-46-1.834a6.073,6.073,0,0,1,4.291-1.607,5.513,5.513,0,0,1,3.888,1.386A4.609,4.609,0,0,1-36.315,1.5a8.514,8.514,0,0,1-1.76,4.683l-.964,1.406q-.57.848-1.443,1.936ZM-28.213-3.3a5.5,5.5,0,0,1,4.582,2.2A9.342,9.342,0,0,1-21.92,4.789q0,4.3-1.9,6.386a5.79,5.79,0,0,1-4.392,2.082,5.615,5.615,0,0,1-4.614-2.222,9.112,9.112,0,0,1-1.766-5.842,10.091,10.091,0,0,1,1.728-6.17A5.405,5.405,0,0,1-28.313-3.3Zm2.9,8.392a7.96,7.96,0,0,0-.785-3.86A2.366,2.366,0,0,0-28.213-.173a2.437,2.437,0,0,0-2.187,1.4,7.979,7.979,0,0,0-.8,3.911,7.115,7.115,0,0,0,.81,3.645,2.352,2.352,0,0,0,2.136,1.367,2.352,2.352,0,0,0,2.136-1.367,7.279,7.279,0,0,0,.8-3.7ZM-13.4,10.067h4.6v3.012H-20.074l5.506-7a17.756,17.756,0,0,0,1.715-2.532A4.036,4.036,0,0,0-12.34,1.7,2.088,2.088,0,0,0-12.951.16a2.088,2.088,0,0,0-1.541-.611,1.687,1.687,0,0,0-1.544.766,5.263,5.263,0,0,0-.585,2.4H-20.2a5.854,5.854,0,0,1,1.721-4.544,6.073,6.073,0,0,1,4.291-1.607A5.513,5.513,0,0,1-10.3-2.056a4.609,4.609,0,0,1,1.506,3.55,8.514,8.514,0,0,1-1.76,4.683l-.966,1.406q-.57.848-1.443,1.936ZM.177-3.072H3.443V6.257H4.975V9.219H3.443v3.86H-.1V9.219H-7.277V6.231ZM-.152.983-4.313,6.257H-.1V.982Z" transform="translate(357.687 228.637)" fill="#08459e"/>
    </g>
  </g>
</svg>
