<svg xmlns="http://www.w3.org/2000/svg" xmlns:xlink="http://www.w3.org/1999/xlink" width="600" height="500" viewBox="0 0 600 500">
  <defs>
    <clipPath id="clip-path">
      <path id="Path_169" data-name="Path 169" d="M272.341,263.992c-23.872-25.756-75.556-34.687-105.633-19.041-11.167,5.811-22.146,17.78-33.349,23.509-24.643,12.607-36.224,22.258-42.937,54.341-6.238,29.774-3.224,53.932,10.5,81.434C116.768,436.007,154,450.351,187.6,451.3c18.842.536,51.823-.439,68.168-10.1,29.254-17.279,36.319-33,43.74-76.313C305.068,332.432,296.217,289.748,272.341,263.992Z" transform="translate(-87.321 -237.21)"/>
    </clipPath>
  </defs>
  <g id="Group_382" data-name="Group 382" transform="translate(-894 -5164)">
    <g id="_7270204" data-name="7270204" transform="translate(902.5 5045.5)">
      <rect id="Rectangle_11" data-name="Rectangle 11" width="600" height="500" rx="20" transform="translate(-8.5 118.5)" fill="#fff9f7"/>
      <g id="Group_81" data-name="Group 81" transform="translate(151.773 166.835)">
        <path id="Path_167" data-name="Path 167" d="M303.453,429.381H24V24H303.453Zm-276.9-2.553H300.9V26.553H26.553Z" transform="translate(-24 -24)" fill="#da8b6c"/>
      </g>
      <path id="Path_891" data-name="Path 891" d="M16.1-17.017H13.828l-1.857-4.91H4.546L2.8-17.017H.516L7.233-34.529H9.358ZM11.3-23.77,8.552-31.232A7.145,7.145,0,0,1,8.283-32.4H8.234a6.542,6.542,0,0,1-.281,1.172L5.23-23.77Zm22.373-5.752-3.752,12.5H27.848l-2.577-8.952a5.836,5.836,0,0,1-.2-1.16h-.049A5.476,5.476,0,0,1,24.766-26l-2.794,8.977h-2l-3.787-12.5h2.1l2.589,9.4A5.665,5.665,0,0,1,21.045-19h.1a5.255,5.255,0,0,1,.22-1.146l2.882-9.379h1.832L28.668-20.1a6.731,6.731,0,0,1,.183,1.123h.1a5.2,5.2,0,0,1,.208-1.123L31.7-29.522Zm11.273,12.5h-2v-1.954H42.9a4.193,4.193,0,0,1-3.847,2.247,4.111,4.111,0,0,1-2.925-.99,3.427,3.427,0,0,1-1.057-2.625q0-3.5,4.128-4.079l3.752-.525q0-3.187-2.577-3.187A6.157,6.157,0,0,0,36.3-26.6v-2.051a7.75,7.75,0,0,1,4.25-1.172q4.409,0,4.409,4.665Zm-2-6.326-3.017.417a4.9,4.9,0,0,0-2.1.69,1.99,1.99,0,0,0-.708,1.752,1.909,1.909,0,0,0,.653,1.5,2.525,2.525,0,0,0,1.74.58,3.215,3.215,0,0,0,2.461-1.042,3.731,3.731,0,0,0,.97-2.647ZM55.24-27.5a2.449,2.449,0,0,0-1.514-.4,2.556,2.556,0,0,0-2.143,1.209,5.59,5.59,0,0,0-.861,3.3v6.375h-2V-29.522h2v2.577h.049A4.367,4.367,0,0,1,52.078-29a2.98,2.98,0,0,1,1.966-.739,3.27,3.27,0,0,1,1.2.171ZM68.091-17.017h-2v-2.125h-.049a4.624,4.624,0,0,1-4.3,2.418A4.671,4.671,0,0,1,57.973-18.4a6.889,6.889,0,0,1-1.411-4.573,7.5,7.5,0,0,1,1.563-4.971,5.159,5.159,0,0,1,4.164-1.869,4.009,4.009,0,0,1,3.752,2.028h.049v-7.743h2Zm-2-5.655v-1.844a3.578,3.578,0,0,0-1-2.565,3.359,3.359,0,0,0-2.54-1.05,3.458,3.458,0,0,0-2.882,1.343,5.888,5.888,0,0,0-1.05,3.713,5.3,5.3,0,0,0,1.008,3.414,3.293,3.293,0,0,0,2.7,1.251,3.421,3.421,0,0,0,2.717-1.209,4.5,4.5,0,0,0,1.042-3.052Z" transform="translate(263.343 563.217)" fill="#cc1f34"/>
      <g id="Group_89" data-name="Group 89" transform="translate(184.107 275.705)">
        <g id="Group_82" data-name="Group 82" clip-path="url(#clip-path)">
          <path id="Path_168" data-name="Path 168" d="M272.341,263.992c-23.872-25.756-75.556-34.687-105.633-19.041-11.167,5.811-22.146,17.78-33.349,23.509-24.643,12.607-36.224,22.258-42.937,54.341-6.238,29.774-3.224,53.932,10.5,81.434C116.768,436.007,154,450.351,187.6,451.3c18.842.536,51.823-.439,68.168-10.1,29.254-17.279,36.319-33,43.74-76.313C305.068,332.432,296.217,289.748,272.341,263.992Z" transform="translate(-87.321 -237.21)" fill="#f1c8b8"/>
        </g>
        <g id="Group_88" data-name="Group 88" clip-path="url(#clip-path)">
          <path id="Path_170" data-name="Path 170" d="M377.51,548.34l.945,63.568,37.8-.036.97-61.454Z" transform="translate(-229.332 -389.469)" fill="#c48d65"/>
          <path id="Path_171" data-name="Path 171" d="M134.73,556.62l2.926,60.667,37.367-.848.327-57.277Z" transform="translate(-110.522 -393.521)" fill="#c48d65"/>
          <path id="Path_172" data-name="Path 172" d="M201.213,394.067s-41.9,11.03-53.789,27.64-15.58,29.065-16.57,42.658-.414,15.7-.414,15.7l38.757-.153.2,56.45,90.519-.3.587-58.421,37.847-.327s-1.992-31.975-9.588-46.773-23.28-24.99-33.522-29.218-24.84-8.533-24.84-8.533Z" transform="translate(-108.341 -313.347)" fill="#457bc9"/>
          <path id="Path_173" data-name="Path 173" d="M228.556,527.152a23.744,23.744,0,0,0,17.968-8.3s-7.7,11.78-18.873,10.723-15.7-14.042-15.7-14.042S216.926,527.152,228.556,527.152Z" transform="translate(-148.311 -373.413)" fill="#2f5184"/>
          <g id="Group_83" data-name="Group 83" transform="translate(72.214 139.399)">
            <path id="Path_174" data-name="Path 174" d="M252.828,511.163a106.345,106.345,0,0,1-2.14,14.955c-.677,3.084-1.44,6.409-3.166,9.135a10.585,10.585,0,0,1-10.2,4.836,14.1,14.1,0,0,1-4.887-1.8q-.452-.26-.888-.551c-.113-.071-.219-.148-.327-.225-.052-.036-.337-.24-.23-.164.066.052-.219-.174-.313-.245-.052-.041-.1-.077-.143-.117-.985-.858-2.456.547-1.465,1.4A16.408,16.408,0,0,0,235.4,541.7a12.473,12.473,0,0,0,6.133.168,13.258,13.258,0,0,0,6.521-4.009c2.293-2.482,3.3-5.877,4.111-9.033A93.148,93.148,0,0,0,254.2,517.67c.286-2.165.536-4.341.7-6.513.087-1.282-1.98-1.271-2.073,0Z" transform="translate(-228.744 -510.207)" fill="#353535"/>
          </g>
          <g id="Group_84" data-name="Group 84" transform="translate(72.501 139.395)">
            <path id="Path_175" data-name="Path 175" d="M229.314,511.16a105.308,105.308,0,0,0,2.415,16.356c.735,3.145,1.6,6.654,3.575,9.324a12.658,12.658,0,0,0,12.137,5.167,16.009,16.009,0,0,0,7.7-3.615c.99-.863-.48-2.262-1.465-1.4-.133.113-.27.219-.409.327-.208.164.092-.066-.056.041-.1.071-.194.138-.291.2-.219.153-.449.3-.674.445a14.973,14.973,0,0,1-4.055,1.8,10.139,10.139,0,0,1-5.4.036,11.574,11.574,0,0,1-5.628-3.908c-1.813-2.3-2.645-5.642-3.329-8.482a94.446,94.446,0,0,1-1.828-10.33c-.25-1.98-.475-3.973-.625-5.969-.1-1.266-2.17-1.277-2.073.005Z" transform="translate(-229.308 -510.2)" fill="#353535"/>
          </g>
          <path id="Path_176" data-name="Path 176" d="M301.518,310.255c-.24-4.713-3.988-9.308-3.988-9.308s1.573-6.286-3.626-12.694c-3.064-3.779-4.6-5.8-9.978-7.271a41.788,41.788,0,0,1-6.505-1.976c-3.916-1.8-10.734-4.054-17.239-1.992-9.911,3.141-10.274,8.1-14.869,11s-8.337,8.584-8.823,13.419-.122,5.683-.122,5.683S233.1,311.1,234.8,318.6s6.409,10.4,12.694,13.419,32.88,1.328,32.88,1.328a20.719,20.719,0,0,0,13.3-4.35C300.068,324.031,301.764,314.968,301.518,310.255Z" transform="translate(-159.253 -256.287)" fill="#353535"/>
          <path id="Path_177" data-name="Path 177" d="M300.169,387.974s-14.88,28.651-15.666,28.2-16-27.967-16-27.967l.909-14.88.015-.751,29.591-.454.005.113v.01Z" transform="translate(-175.986 -303.231)" fill="#c48d65"/>
          <path id="Path_178" data-name="Path 178" d="M331.591,359.112a5.986,5.986,0,0,1-3.692,2.129,7.359,7.359,0,0,1-1.4.138l.9-11.387a5.619,5.619,0,0,1,1.491-.7,2.928,2.928,0,0,1,3.324.93C334.088,352.543,333.4,356.738,331.591,359.112Z" transform="translate(-204.369 -291.97)" fill="#c48d65"/>
          <path id="Path_179" data-name="Path 179" d="M328.9,349.48a90.337,90.337,0,0,1-.449,9.079c-.1.531-.322,1.711-.547,2.87a7.351,7.351,0,0,1-1.4.138l.9-11.387a5.272,5.272,0,0,1,1.5-.7Z" transform="translate(-204.371 -292.152)" fill="#aa734f"/>
          <path id="Path_180" data-name="Path 180" d="M264.992,361.384a6.943,6.943,0,0,1-1.547-.164,5.96,5.96,0,0,1-3.549-2.1c-1.818-2.38-2.492-6.572-.625-8.89a2.953,2.953,0,0,1,3.431-.894,5.439,5.439,0,0,1,1.379.664Z" transform="translate(-170.925 -291.975)" fill="#c48d65"/>
          <path id="Path_181" data-name="Path 181" d="M269.343,361.6a6.939,6.939,0,0,1-1.547-.164c-.138-.608-.27-1.282-.378-1.986a95.381,95.381,0,0,1-.365-9.9,5.439,5.439,0,0,1,1.379.664Z" transform="translate(-175.276 -292.186)" fill="#aa734f"/>
          <path id="Path_182" data-name="Path 182" d="M299.881,372.233v.01a45.5,45.5,0,0,1-.677,4.606c-.786,3.289-8.885,12.888-13.95,13.23s-12.827-8.813-14.18-12.316a19.627,19.627,0,0,1-.807-4.437l.015-.751,29.591-.454Z" transform="translate(-176.85 -303.232)" fill="#aa734f"/>
          <path id="Path_183" data-name="Path 183" d="M300.191,329.914s-.454,12.572-1.246,15.855-9.288,12-14.384,12.342-13.476-8.155-14.833-11.663-.677-16.876-.677-16.876a13.813,13.813,0,0,0,4.984-4.642l1.7-2.946s7.7-.113,10.984-4.3c0,0,2.037,4.984,9.738,4.872C296.455,322.551,296.224,327.764,300.191,329.914Z" transform="translate(-176.172 -276.59)" fill="#c48d65"/>
          <path id="Path_184" data-name="Path 184" d="M280.976,348.01a1.031,1.031,0,0,1,.23-.46.947.947,0,0,1,.365-.347c.015-.01.036-.015.052-.026a1.386,1.386,0,0,1,.4-.2,1.429,1.429,0,0,1,.776,0,1.551,1.551,0,0,1,.653.4,2.439,2.439,0,0,1,.235.313.2.2,0,0,1,.031.056,1.866,1.866,0,0,1,.208.8,2.373,2.373,0,0,1-.052.511.868.868,0,0,1-.031.156,1.67,1.67,0,0,1-.168.444,1.558,1.558,0,0,1-.521.556,1.389,1.389,0,0,1-.72.208,1.226,1.226,0,0,1-.429-.056,1.507,1.507,0,0,1-.383-.168,2.16,2.16,0,0,1-.3-.24.306.306,0,0,1-.041-.041,1.714,1.714,0,0,1-.378-.677,2.527,2.527,0,0,1-.062-.439.277.277,0,0,1,0-.092,2.427,2.427,0,0,1,.131-.7Z" transform="translate(-182.025 -290.902)" fill="#353535"/>
          <path id="Path_185" data-name="Path 185" d="M295.821,348.07c-.077.113-2.66,7.041-2.17,9.344s4.851,1.793,5.494,1.19a1.426,1.426,0,0,0,.49-1.282l-4.872-.342Z" transform="translate(-188.263 -291.462)" fill="#aa734f"/>
          <path id="Path_186" data-name="Path 186" d="M313.411,348.01a1.031,1.031,0,0,1,.23-.46.947.947,0,0,1,.365-.347c.015-.01.036-.015.052-.026a1.388,1.388,0,0,1,.4-.2,1.43,1.43,0,0,1,.776,0,1.551,1.551,0,0,1,.653.4,2.426,2.426,0,0,1,.235.313.2.2,0,0,1,.031.056,1.867,1.867,0,0,1,.208.8,2.378,2.378,0,0,1-.052.511.873.873,0,0,1-.031.156,1.668,1.668,0,0,1-.168.444,1.559,1.559,0,0,1-.521.556,1.39,1.39,0,0,1-.72.208,1.226,1.226,0,0,1-.429-.056,1.508,1.508,0,0,1-.383-.168,2.169,2.169,0,0,1-.3-.24.311.311,0,0,1-.041-.041,1.715,1.715,0,0,1-.378-.677,2.532,2.532,0,0,1-.061-.439.278.278,0,0,1,0-.092,2.424,2.424,0,0,1,.134-.7Z" transform="translate(-197.898 -290.902)" fill="#353535"/>
          <path id="Path_187" data-name="Path 187" d="M299.864,356.462c-.886.071-1.777.113-2.665.1-.281-.005-.562-.01-.837-.041-.1-.01-.143-.015-.24-.031-.031-.005-.061-.015-.092-.02-.005-.071-.005-.148-.01-.219a15.453,15.453,0,0,1,.322-2.737c.189-1.082.409-2.16.644-3.231.133-.6.266-1.2.414-1.808.179-.74-.96-1.057-1.139-.317-.409,1.7-.776,3.406-1.072,5.122a16.67,16.67,0,0,0-.352,3.013,1.478,1.478,0,0,0,.291,1.021,2.124,2.124,0,0,0,1.355.393,21.98,21.98,0,0,0,3.38-.071C300.62,357.585,300.625,356.4,299.864,356.462Z" transform="translate(-188.87 -291.301)" fill="#353535"/>
          <path id="Path_188" data-name="Path 188" d="M263.122,354.494a10.727,10.727,0,0,1,1.47,1.527l.056-2.548s-1.757-1.47-2.946-.225-.848,3.626.113,5.321,1.98,2.773,1.869,2.094-1.358-2.66-1.588-4.136S262.56,354.1,263.122,354.494Z" transform="translate(-172.288 -293.751)" fill="#aa734f"/>
          <path id="Path_189" data-name="Path 189" d="M332.641,353.048a2.7,2.7,0,0,0-2.548.677l-.113,2.492s.9-1.358,1.527-1.414,1.246.454,1.19,1.925-1.583,3.96-1.414,4.3,2.094-2.037,2.435-3.738S333.942,353.558,332.641,353.048Z" transform="translate(-206.072 -293.836)" fill="#aa734f"/>
          <path id="Path_190" data-name="Path 190" d="M292.38,371.526a6.566,6.566,0,0,0,1.47,2.66c1.021.965,4.131.792,5.04.056a5.838,5.838,0,0,0,1.3-2.773Z" transform="translate(-187.672 -302.913)" fill="#fff"/>
          <path id="Path_191" data-name="Path 191" d="M282.742,339.141c-.807-.434-1.481-.858-4.08-.6s-3.439,1.455-2.88,1.757,2.456-.173,3.845-.087,2.966.812,3.615.255S283.084,339.324,282.742,339.141Z" transform="translate(-179.468 -286.761)" fill="#353535"/>
          <path id="Path_192" data-name="Path 192" d="M309.375,338.824a6.551,6.551,0,0,1,3.559-.424c1.9.128,3.85,1.435,3.217,1.9s-2.293-.128-3.7-.087-3.752.8-4.044.128S308.982,339.013,309.375,338.824Z" transform="translate(-195.486 -286.709)" fill="#353535"/>
          <path id="Path_193" data-name="Path 193" d="M265.991,371.177a1.876,1.876,0,1,1-1.869-2.037A1.96,1.96,0,0,1,265.991,371.177Z" transform="translate(-172.925 -301.773)" fill="#cc1f34"/>
          <path id="Path_194" data-name="Path 194" d="M299.286,411.751l-7.169,12.35q-5.676,9.765-11.346,19.532c-.7,1.215-1.414,2.431-2.119,3.648q-3.37-5.653-6.74-11.3l-11.55-19.363-2.63-4.407a.592.592,0,1,0-1.021.6q3.63,6.081,7.256,12.163l11.55,19.363q1.317,2.206,2.63,4.412a.6.6,0,0,0,1.021,0l7.169-12.35q5.676-9.765,11.346-19.531,1.31-2.259,2.625-4.514a.593.593,0,1,0-1.021-.6Z" transform="translate(-170.181 -322.484)" fill="#123e7f"/>
          <path id="Path_195" data-name="Path 195" d="M333.158,371.177a1.876,1.876,0,1,1-1.869-2.037A1.96,1.96,0,0,1,333.158,371.177Z" transform="translate(-205.795 -301.773)" fill="#cc1f34"/>
          <g id="Group_85" data-name="Group 85" transform="translate(84.089 78.304)">
            <path id="Path_196" data-name="Path 196" d="M260.828,390.56l-.25,4.07a13.716,13.716,0,0,0-1.853,2.3,10.633,10.633,0,0,0-.677,1.164c-.077.143-.143.286-.208.424-.031.061-.052.117-.082.179v.005a.018.018,0,0,0,0,.01l0,.005v.005c0,.005,0,.005-.005.01v.01l-.005.005a21.7,21.7,0,0,0-.74,2.17,42.219,42.219,0,0,0-1.129,5.4,89.371,89.371,0,0,0-.919,12.03c-.031,1.833,0,3.661.077,5.494.031.945.071,1.884.117,2.834l-.27-.046a.66.66,0,0,1-.077-.015h-.01a.387.387,0,0,1-.066,0,9.941,9.941,0,0,0-1.869-.015c-.01,0-.015,0-.031,0h-.02c-.066.01-.143.026-.208.036a3.712,3.712,0,0,0-.388.077c-.036-.938-.077-1.876-.107-2.809-.087-2.63-.143-5.27-.036-7.92A82.04,82.04,0,0,1,253.4,403.3c.725-3.748,1.91-7.225,4.489-10.131A16.934,16.934,0,0,1,260.828,390.56Z" transform="translate(-252 -390.56)" fill="#cc1f34"/>
          </g>
          <g id="Group_86" data-name="Group 86" transform="translate(123.514 75.589)">
            <path id="Path_197" data-name="Path 197" d="M338.9,430.171a1.479,1.479,0,0,1-2.957,0c-.015-2.012-.061-4.029-.107-6.044-.1-3.825-.24-7.66-.46-11.484-.113-2.053-.255-4.111-.434-6.158-.082-1-.184-2-.291-3-.052-.485-.107-.97-.174-1.455-.061-.526-.071-.592-.128-1-.536-3.814-1.527-7.848-3.932-10.738a12.9,12.9,0,0,0-.909-.985l-.3-4.07a15.8,15.8,0,0,1,4.07,3.958c2.589,3.5,3.488,7.752,4.049,11.974.547,4.106.827,8.247,1.052,12.378Q338.825,421.852,338.9,430.171Z" transform="translate(-329.21 -385.243)" fill="#cc1f34"/>
          </g>
          <circle id="Ellipse_25" data-name="Ellipse 25" cx="9.738" cy="9.738" r="9.738" transform="translate(121.605 115.687)" fill="#fff"/>
          <circle id="Ellipse_26" data-name="Ellipse 26" cx="5.888" cy="5.888" r="5.888" transform="translate(125.531 119.313)" fill="#353535"/>
          <circle id="Ellipse_27" data-name="Ellipse 27" cx="4.115" cy="4.115" r="4.115" transform="translate(127.303 121.085)" fill="#fff"/>
          <g id="Group_87" data-name="Group 87" transform="translate(71.923 111.517)">
            <path id="Path_198" data-name="Path 198" d="M254.98,485.984,252,485.9a84.145,84.145,0,0,0,.113-11.06q-.077-1.042-.2-2.084c-.031-.3-.1-.827-.117-.975,0-.005-.052-.352-.066-.414-.026-.153-.046-.306-.071-.46a33.312,33.312,0,0,0-.97-4.213c-.2-.649-.417-1.282-.674-1.91-.031-.071-.133-.306-.156-.383a.039.039,0,0,0,0-.015.015.015,0,0,1,0-.01c-.036-.077-.128-.276-.148-.322-.128-.27-.266-.536-.409-.807a13.369,13.369,0,0,0-1.031-1.639c-.036-.052-.194-.24-.225-.286-.071-.087-.148-.184-.225-.266-.184-.208-.378-.409-.582-.6-.225-.219-.465-.414-.71-.613a.229.229,0,0,1-.036-.036h-.005a.634.634,0,0,1-.1-.066,4.2,4.2,0,0,0-.368-.235q-.383-.234-.782-.434c-.1-.046-.194-.087-.291-.138h-.005a.015.015,0,0,0-.01-.005h-.005a.015.015,0,0,0-.01,0,1.878,1.878,0,0,1-.261-.1,9.05,9.05,0,0,0-.95-.266c-.066-.015-.138-.031-.2-.041l-.27-.046a.674.674,0,0,1-.077-.015h-.01a.4.4,0,0,1-.066,0,9.933,9.933,0,0,0-1.869-.015c-.01,0-.015,0-.031,0h-.02c-.066.01-.143.026-.208.036a3.719,3.719,0,0,0-.388.077c-.01,0-.015.005-.031.005-.27.071-.536.153-.807.24-.046.015-.082.031-.107.036H239.6c-.005.005-.01.01-.015.01-.128.066-.255.113-.378.179a7.023,7.023,0,0,0-.715.409c-.117.071-.23.153-.342.225-.005.005-.01.01-.015.01a.162.162,0,0,1-.031.026c-.036.036-.077.066-.113.1a7.269,7.269,0,0,0-.6.521c-.219.208-.434.434-.633.659-.077.087-.153.179-.23.27-.01.005-.015.015-.031.031,0,.005-.005.005-.005.01h-.005c0,.005-.005.01-.01.015a1.586,1.586,0,0,1-.113.148,19.319,19.319,0,0,0-1.9,3.283c-.005.005-.005.01-.01.015s-.005.01-.01.026v.005c-.005.005-.005.015-.01.026s-.005.005-.005.01a1.126,1.126,0,0,0-.061.138c-.061.153-.122.306-.189.46-.122.313-.235.628-.352.934-.225.643-.434,1.3-.625,1.946a41.583,41.583,0,0,0-.97,4.1c-.128.684-.24,1.379-.347,2.078-.01.077-.046.313-.061.409a.056.056,0,0,1-.005.026v.015c-.01.082-.031.25-.041.291-.041.322-.082.644-.117.97a68.322,68.322,0,0,0-.516,9.089l-2.962-.087a64.459,64.459,0,0,1,.909-11.847,41.3,41.3,0,0,1,2.1-8.328,17.486,17.486,0,0,1,4.386-6.955,9.674,9.674,0,0,1,4.866-2.308,9.9,9.9,0,0,1,2.931-.052,10.644,10.644,0,0,1,6.9,3.8c3.779,4.631,4.606,11.116,4.892,16.815a64.49,64.49,0,0,1-.187,9.677Z" transform="translate(-228.175 -455.603)" fill="#cc1f34"/>
          </g>
          <path id="Path_199" data-name="Path 199" d="M226.818,557.45a2.708,2.708,0,0,1,.322,3.9,2.981,2.981,0,0,1-4.06-.306,2.708,2.708,0,0,1-.322-3.9A2.98,2.98,0,0,1,226.818,557.45Z" transform="translate(-153.263 -393.452)" fill="#353535"/>
          <path id="Path_200" data-name="Path 200" d="M276.931,557.45a2.708,2.708,0,0,0-.322,3.9,2.981,2.981,0,0,0,4.06-.306,2.708,2.708,0,0,0,.322-3.9A2.98,2.98,0,0,0,276.931,557.45Z" transform="translate(-179.617 -393.452)" fill="#353535"/>
          <path id="Path_201" data-name="Path 201" d="M198.522,522.23c-.6,5.285-.6,12.684-.6,12.684h4.529l-2.568-29.744S199.125,516.945,198.522,522.23Z" transform="translate(-141.446 -368.343)" fill="#2f5184"/>
          <path id="Path_202" data-name="Path 202" d="M387.715,501.91,385.3,531.051h5.586Z" transform="translate(-233.145 -366.747)" fill="#e2ac7f"/>
          <path id="Path_203" data-name="Path 203" d="M328.349,527.152a23.744,23.744,0,0,1-17.969-8.3s7.7,11.78,18.873,10.723,15.7-14.042,15.7-14.042S339.976,527.152,328.349,527.152Z" transform="translate(-196.481 -373.413)" fill="#2f5184"/>
        </g>
      </g>
      <g id="Group_90" data-name="Group 90" transform="translate(277.528 254.107)">
        <path id="Path_205" data-name="Path 205" d="M305.184,195.356c-6.807-2.221-12.909,4.575-13.935,5.8-1.027-1.22-7.128-8.017-13.935-5.8-7.465,2.436-8.507,11.3-5.392,17.508,2.966,5.913,17.591,16.238,19.327,16.054,1.736.184,16.365-10.141,19.327-16.054C313.691,206.656,312.654,197.792,305.184,195.356Z" transform="translate(-270.275 -194.913)" fill="#cc1f34"/>
        <path id="Path_206" data-name="Path 206" d="M311.7,217.579h-5.729V211.85h-5.244v5.729H295v5.244h5.732v5.732h5.244v-5.732H311.7Z" transform="translate(-282.372 -203.202)" fill="#fff"/>
      </g>
      <g id="Group_91" data-name="Group 91" transform="translate(376.096 341.656)">
        <path id="Path_207" data-name="Path 207" d="M495.479,389.937a7.248,7.248,0,0,1-10,2.084l-18.9-12.383a7.226,7.226,0,0,1,7.92-12.089l18.9,12.383a7.254,7.254,0,0,1,2.08,10Z" transform="translate(-463.309 -366.366)" fill="#fff"/>
        <path id="Path_208" data-name="Path 208" d="M484.277,373.964l-7.92,12.089-9.779-6.409a7.226,7.226,0,0,1,7.92-12.089Z" transform="translate(-463.31 -366.369)" fill="#457bc9"/>
      </g>
      <g id="Group_93" data-name="Group 93" transform="translate(347.405 287.988)">
        <path id="Path_209" data-name="Path 209" d="M442.44,261.906l-30.97,13.9a7.4,7.4,0,0,0-3.707,9.748h0a7.4,7.4,0,0,0,9.744,3.707l30.97-13.9a7.4,7.4,0,0,0,3.707-9.744h0a7.392,7.392,0,0,0-9.744-3.711Z" transform="translate(-407.122 -261.265)" fill="#fff"/>
        <rect id="Rectangle_12" data-name="Rectangle 12" width="12.674" height="19.046" transform="translate(28.936 4.644) rotate(65.793)" fill="#ddd"/>
        <rect id="Rectangle_13" data-name="Rectangle 13" width="17.351" height="11.448" transform="translate(12.598 12.659) rotate(-24.207)" fill="#fff"/>
        <g id="Group_92" data-name="Group 92" transform="translate(15.656 8.315)">
          <path id="Path_210" data-name="Path 210" d="M439.054,287.039a.658.658,0,1,1-.369-.35A.658.658,0,0,1,439.054,287.039Z" transform="translate(-437.785 -282)" fill="#ddd"/>
          <path id="Path_211" data-name="Path 211" d="M444.364,298.864a.657.657,0,1,1-.369-.35.664.664,0,0,1,.369.35Z" transform="translate(-440.383 -287.787)" fill="#ddd"/>
          <path id="Path_212" data-name="Path 212" d="M449.184,282.494a.658.658,0,1,1-.37-.35.658.658,0,0,1,.37.35Z" transform="translate(-442.742 -279.776)" fill="#ddd"/>
          <path id="Path_213" data-name="Path 213" d="M454.5,294.315a.661.661,0,1,1-.37-.349A.661.661,0,0,1,454.5,294.315Z" transform="translate(-445.345 -285.562)" fill="#ddd"/>
          <path id="Path_214" data-name="Path 214" d="M459.324,277.94a.661.661,0,1,1-.37-.349.661.661,0,0,1,.37.349Z" transform="translate(-447.704 -277.548)" fill="#ddd"/>
          <path id="Path_215" data-name="Path 215" d="M464.634,289.764a.658.658,0,1,1-.37-.35A.658.658,0,0,1,464.634,289.764Z" transform="translate(-450.303 -283.334)" fill="#ddd"/>
          <path id="Path_216" data-name="Path 216" d="M457.294,285.977a.664.664,0,1,1-.371-.348.664.664,0,0,1,.371.348Z" transform="translate(-446.71 -281.483)" fill="#ddd"/>
          <path id="Path_217" data-name="Path 217" d="M446.784,290.714a.658.658,0,1,1-.37-.35A.658.658,0,0,1,446.784,290.714Z" transform="translate(-441.567 -283.799)" fill="#ddd"/>
        </g>
      </g>
      <g id="Group_104" data-name="Group 104" transform="translate(235.098 461.926)">
        <path id="Path_218" data-name="Path 218" d="M231.049,615.146,221.2,602.8a2.371,2.371,0,0,0-3.335-.378l-29.792,23.757a2.371,2.371,0,0,0-.378,3.335l9.845,12.349a2.371,2.371,0,0,0,3.335.378l29.79-23.754a2.371,2.371,0,0,0,.38-3.337Z" transform="translate(-187.182 -601.901)" fill="#a5d3ef"/>
        <path id="Path_219" data-name="Path 219" d="M230.286,619.537a.261.261,0,0,0-.365-.041L200.7,642.8a.261.261,0,1,0,.322.4l29.218-23.3a.261.261,0,0,0,.043-.363Z" transform="translate(-193.736 -610.484)" fill="#c9e7f4"/>
        <g id="Group_94" data-name="Group 94" transform="translate(28.309 3.459)">
          <path id="Path_220" data-name="Path 220" d="M247.667,614.207a3.106,3.106,0,0,1-5.04-2.517,3.538,3.538,0,0,1,.056-.516,3.109,3.109,0,0,1,6.157.694,3.4,3.4,0,0,1-.056.511A3.183,3.183,0,0,1,247.667,614.207Z" transform="translate(-242.623 -608.674)" fill="#fff"/>
          <path id="Path_221" data-name="Path 221" d="M248.773,614.775l-6.153-.689a3.545,3.545,0,0,1,.056-.516l6.158.7a3.478,3.478,0,0,1-.061.511Z" transform="translate(-242.62 -611.07)" fill="#ddd"/>
        </g>
        <g id="Group_95" data-name="Group 95" transform="translate(34.63 11.384)">
          <path id="Path_222" data-name="Path 222" d="M260.049,629.727a3.106,3.106,0,0,1-5.04-2.517,3.535,3.535,0,0,1,.056-.516,3.109,3.109,0,0,1,6.156.694,3.381,3.381,0,0,1-.056.511,3.127,3.127,0,0,1-1.116,1.828Z" transform="translate(-255.004 -624.194)" fill="#fff"/>
          <path id="Path_223" data-name="Path 223" d="M261.153,630.294,255,629.606a3.546,3.546,0,0,1,.056-.516l6.158.7a2.844,2.844,0,0,1-.061.509Z" transform="translate(-255 -626.59)" fill="#ddd"/>
        </g>
        <g id="Group_96" data-name="Group 96" transform="translate(22.231 8.305)">
          <path id="Path_224" data-name="Path 224" d="M235.759,623.7a3.106,3.106,0,0,1-5.04-2.517,3.54,3.54,0,0,1,.056-.516,3.109,3.109,0,0,1,6.156.694,3.386,3.386,0,0,1-.056.511,3.13,3.13,0,0,1-1.116,1.828Z" transform="translate(-230.718 -618.164)" fill="#fff"/>
          <path id="Path_225" data-name="Path 225" d="M236.873,624.265l-6.153-.689a3.541,3.541,0,0,1,.056-.516l6.158.7a4.358,4.358,0,0,1-.061.5Z" transform="translate(-230.719 -620.56)" fill="#ddd"/>
        </g>
        <g id="Group_97" data-name="Group 97" transform="translate(28.552 16.234)">
          <path id="Path_226" data-name="Path 226" d="M248.139,639.227a3.106,3.106,0,0,1-5.04-2.517,3.54,3.54,0,0,1,.056-.516,3.109,3.109,0,0,1,6.157.694,3.388,3.388,0,0,1-.056.511,3.131,3.131,0,0,1-1.117,1.828Z" transform="translate(-243.098 -633.694)" fill="#fff"/>
          <path id="Path_227" data-name="Path 227" d="M249.253,639.794l-6.153-.688a3.538,3.538,0,0,1,.056-.516l6.158.7a4.488,4.488,0,0,1-.061.509Z" transform="translate(-243.099 -636.09)" fill="#ddd"/>
        </g>
        <g id="Group_98" data-name="Group 98" transform="translate(16.15 13.15)">
          <path id="Path_228" data-name="Path 228" d="M223.859,633.187a3.106,3.106,0,0,1-5.04-2.517,3.535,3.535,0,0,1,.056-.516,3.109,3.109,0,0,1,6.156.694,3.4,3.4,0,0,1-.056.511,3.141,3.141,0,0,1-1.116,1.828Z" transform="translate(-218.814 -627.654)" fill="#fff"/>
          <path id="Path_229" data-name="Path 229" d="M224.963,633.755l-6.153-.689a3.54,3.54,0,0,1,.056-.516l6.158.7a2.845,2.845,0,0,1-.061.51Z" transform="translate(-218.81 -630.05)" fill="#ddd"/>
        </g>
        <g id="Group_99" data-name="Group 99" transform="translate(22.472 21.079)">
          <path id="Path_230" data-name="Path 230" d="M236.239,648.714a3.106,3.106,0,0,1-5.04-2.517,3.537,3.537,0,0,1,.056-.516,3.109,3.109,0,0,1,6.157.694,3.4,3.4,0,0,1-.056.511A3.156,3.156,0,0,1,236.239,648.714Z" transform="translate(-231.194 -643.181)" fill="#fff"/>
          <path id="Path_231" data-name="Path 231" d="M237.344,649.285l-6.154-.689a3.537,3.537,0,0,1,.056-.516l6.158.7a2.9,2.9,0,0,1-.06.511Z" transform="translate(-231.19 -645.579)" fill="#ddd"/>
        </g>
        <g id="Group_100" data-name="Group 100" transform="translate(10.073 17.996)">
          <path id="Path_232" data-name="Path 232" d="M211.949,642.677a3.106,3.106,0,0,1-5.04-2.517,3.537,3.537,0,0,1,.056-.516,3.109,3.109,0,0,1,6.157.694,3.4,3.4,0,0,1-.056.511A3.1,3.1,0,0,1,211.949,642.677Z" transform="translate(-206.908 -637.144)" fill="#fff"/>
          <path id="Path_233" data-name="Path 233" d="M213.063,643.245l-6.153-.689a3.54,3.54,0,0,1,.056-.516l6.158.7a4.232,4.232,0,0,1-.061.5Z" transform="translate(-206.909 -639.54)" fill="#ddd"/>
        </g>
        <g id="Group_101" data-name="Group 101" transform="translate(16.395 25.926)">
          <path id="Path_234" data-name="Path 234" d="M224.339,658.207a3.106,3.106,0,0,1-5.04-2.517,3.546,3.546,0,0,1,.056-.516,3.109,3.109,0,0,1,6.157.694,3.4,3.4,0,0,1-.056.511,3.167,3.167,0,0,1-1.117,1.828Z" transform="translate(-219.294 -652.674)" fill="#fff"/>
          <path id="Path_235" data-name="Path 235" d="M225.444,658.775l-6.154-.689a3.544,3.544,0,0,1,.056-.516l6.158.7a3.482,3.482,0,0,1-.06.511Z" transform="translate(-219.29 -655.07)" fill="#ddd"/>
        </g>
        <g id="Group_102" data-name="Group 102" transform="translate(3.731 23.056)">
          <path id="Path_236" data-name="Path 236" d="M199.529,652.587a3.106,3.106,0,0,1-5.04-2.517,3.54,3.54,0,0,1,.056-.516,3.109,3.109,0,0,1,6.157.694,3.4,3.4,0,0,1-.056.511A3.13,3.13,0,0,1,199.529,652.587Z" transform="translate(-194.488 -647.054)" fill="#fff"/>
          <path id="Path_237" data-name="Path 237" d="M200.644,653.155l-6.154-.689a3.541,3.541,0,0,1,.056-.516l6.158.7A4.359,4.359,0,0,1,200.644,653.155Z" transform="translate(-194.489 -649.45)" fill="#ddd"/>
        </g>
        <g id="Group_103" data-name="Group 103" transform="translate(10.053 30.985)">
          <path id="Path_238" data-name="Path 238" d="M211.909,668.114a3.106,3.106,0,0,1-5.04-2.517,3.542,3.542,0,0,1,.056-.516,3.109,3.109,0,0,1,6.157.694,3.4,3.4,0,0,1-.056.511,3.13,3.13,0,0,1-1.117,1.828Z" transform="translate(-206.868 -662.581)" fill="#fff"/>
          <path id="Path_239" data-name="Path 239" d="M213.023,668.685,206.87,668a3.532,3.532,0,0,1,.056-.516l6.158.7A4.485,4.485,0,0,1,213.023,668.685Z" transform="translate(-206.869 -664.979)" fill="#ddd"/>
        </g>
      </g>
      <g id="Group_108" data-name="Group 108" transform="translate(172.751 351.662)">
        <g id="Group_105" data-name="Group 105" transform="translate(4.675)">
          <path id="Path_240" data-name="Path 240" d="M89.563,393.62a7.668,7.668,0,0,1-12.61,5.857,8.88,8.88,0,0,1-.909-.9,7.671,7.671,0,0,1,10.81-10.81,7.865,7.865,0,0,1,.9.9,7.655,7.655,0,0,1,1.81,4.953Z" transform="translate(-74.237 -385.962)" fill="#fff"/>
          <path id="Path_241" data-name="Path 241" d="M89.467,390.4l-10.8,10.8a8.881,8.881,0,0,1-.909-.9l10.809-10.8a7.515,7.515,0,0,1,.9.9Z" transform="translate(-75.96 -387.694)" fill="#ddd"/>
        </g>
        <g id="Group_106" data-name="Group 106" transform="translate(18.732 18.608)">
          <path id="Path_242" data-name="Path 242" d="M117.093,430.062a7.668,7.668,0,0,1-12.61,5.857,8.885,8.885,0,0,1-.909-.9,7.671,7.671,0,0,1,10.81-10.81,7.861,7.861,0,0,1,.9.9A7.655,7.655,0,0,1,117.093,430.062Z" transform="translate(-101.768 -422.404)" fill="#fff"/>
          <path id="Path_243" data-name="Path 243" d="M117,426.838l-10.8,10.8a8.876,8.876,0,0,1-.909-.9l10.809-10.8a7.907,7.907,0,0,1,.9.9Z" transform="translate(-103.492 -424.134)" fill="#ddd"/>
        </g>
        <g id="Group_107" data-name="Group 107" transform="translate(0 17.515)">
          <path id="Path_244" data-name="Path 244" d="M74.216,435.453a7.669,7.669,0,0,1-8.165-11.259,8.185,8.185,0,0,1,.71-1.062,7.666,7.666,0,0,1,12.674,8.533,7.8,7.8,0,0,1-.71,1.057,7.636,7.636,0,0,1-4.509,2.731Z" transform="translate(-65.083 -420.264)" fill="#fff"/>
          <path id="Path_245" data-name="Path 245" d="M79.664,435.459,66.99,426.932a8.177,8.177,0,0,1,.71-1.062l12.679,8.538a8.673,8.673,0,0,1-.715,1.051Z" transform="translate(-66.016 -423.008)" fill="#ddd"/>
        </g>
      </g>
      <g id="Group_109" data-name="Group 109" transform="translate(205.09 281.983)">
        <path id="Path_246" data-name="Path 246" d="M162.981,295.849l-18.55,8.538a2.319,2.319,0,0,1-3.094-1.087l-12.653-27.482a2.986,2.986,0,0,1,.041-2.563l3.314-6.781,10.192-4.693,7.307,1.895a3,3,0,0,1,1.976,1.634l12.653,27.482a2.324,2.324,0,0,1-1.186,3.057Z" transform="translate(-128.415 -255.512)" fill="#fff"/>
        <rect id="Rectangle_14" data-name="Rectangle 14" width="11.218" height="4.57" transform="translate(1.719 6.812) rotate(-24.719)" fill="#fff"/>
        <path id="Path_247" data-name="Path 247" d="M141.6,253.888l-9.87,4.544a.758.758,0,0,1-1.006-.373l-1.355-2.936a.758.758,0,0,1,.373-1.006l9.87-4.544a.758.758,0,0,1,1.006.373l1.355,2.936a.757.757,0,0,1-.373,1.006Z" transform="translate(-128.849 -249.504)" fill="#457bc9"/>
        <rect id="Rectangle_15" data-name="Rectangle 15" width="20.645" height="17.407" transform="translate(4.758 24.686) rotate(-24.719)" fill="#457bc9"/>
        <path id="Path_248" data-name="Path 248" d="M161.723,295.386l-3.181,1.465-1.465-3.181-2.911,1.338,1.465,3.181-3.181,1.465,1.343,2.911,3.181-1.465,1.465,3.181,2.911-1.338-1.465-3.181,3.181-1.465Z" transform="translate(-140.177 -271.117)" fill="#fff"/>
      </g>
      <path id="Path_249" data-name="Path 249" d="M103.746,544.4c0-.782,1.078-8.41,1.563-10.953s1.859-9.288.587-11.147-3.732-1.6-4.79-1.078c-2.15,1.078-2.931,9-3.518,9.094s-1.859-5.28-2.543-8.507-1.859-8.8-2.834-9.484-3.911-.587-4.887.878-.587,4.2-.291,6.158.975,5.377.975,5.377-3.615-10.171-4.4-11.438-3.911-1.174-5.183-.291a3.529,3.529,0,0,0-1.368,3.227,85.814,85.814,0,0,0,2.834,8.507c.782,1.859.879,2.15.879,2.15s-4.791-7.234-5.966-8.214-3.324-.291-4.3.684a4.058,4.058,0,0,0-.587,3.717c.291.786,4.887,7.526,4.887,7.526s-4.989-4.106-6.357-4.5a3.2,3.2,0,0,0-3.518,2.446c-.194,1.465,1.271,3.13,3.814,5.867a114.93,114.93,0,0,1,7.823,9.972c1.563,2.247,3.421,4.009,4.009,4.79s4.79,14.374,4.79,14.374l21.312-5.474C106.682,558.088,103.746,545.179,103.746,544.4Z" transform="translate(107.756 -95.938)" fill="#49a3db"/>
      <g id="Group_111" data-name="Group 111" transform="translate(307.066 453.386)">
        <path id="Path_250" data-name="Path 250" d="M371.233,622.686l-2.267,2.466a3.162,3.162,0,0,1-4.453.342l-23.106-21.26a6.385,6.385,0,0,1-1.5-2.089l-3.145-6.373a8.565,8.565,0,0,0-1.9-2.543l-2.951-2.71-3.447-3.178a1.247,1.247,0,0,1,1.685-1.831l6.383,5.872a8.623,8.623,0,0,0,2.727,1.7l6.6,2.568a6.324,6.324,0,0,1,2.257,1.338L371.2,618.222a3.151,3.151,0,0,1,.038,4.464Z" transform="translate(-328.123 -585.209)" fill="#fff"/>
        <path id="Path_251" data-name="Path 251" d="M370.051,620.225l-8.226-7.567a.974.974,0,0,0-1.374.041l-2.15,2.339a.97.97,0,0,0,.071,1.368l8.226,7.568a.974.974,0,0,0,1.374-.041l2.15-2.339a.97.97,0,0,0-.071-1.369Z" transform="translate(-342.77 -598.497)" fill="#457bc9"/>
        <path id="Path_252" data-name="Path 252" d="M333.633,588.628l-1.69,1.838-3.447-3.179a1.247,1.247,0,0,1,1.685-1.833Z" transform="translate(-328.135 -585.177)" fill="#ddd"/>
        <path id="Path_253" data-name="Path 253" d="M402.914,651.352l-2.267,2.466a3.162,3.162,0,0,1-4.453.342l-3.335-3.069,6.691-7.271,3.335,3.069a3.156,3.156,0,0,1,.029,4.463Z" transform="translate(-359.803 -613.876)" fill="#457bc9"/>
        <g id="Group_110" data-name="Group 110" transform="translate(27.626 25.219)">
          <path id="Path_254" data-name="Path 254" d="M383.377,640.757a3.567,3.567,0,1,1,5.04-.208A3.567,3.567,0,0,1,383.377,640.757Z" transform="translate(-382.226 -634.566)" fill="#457bc9"/>
          <path id="Path_255" data-name="Path 255" d="M388.55,640.726a2.945,2.945,0,1,1-.174-4.162,2.945,2.945,0,0,1,.174,4.162Z" transform="translate(-382.819 -635.163)" fill="#fff"/>
        </g>
      </g>
      <g id="Group_115" data-name="Group 115" transform="translate(362.821 397.336)">
        <g id="Group_112" data-name="Group 112" transform="translate(0 40.171)">
          <path id="Path_256" data-name="Path 256" d="M439.481,554.386a20.429,20.429,0,0,0-1.726,4.881c-.674,2.987-.725,6.326.888,9.115a13.517,13.517,0,0,0,10.412,6.735,11.432,11.432,0,0,0,8.858-3.416,21.123,21.123,0,0,0,4.172-5.357c.378-.7-.735-1.348-1.113-.644a20,20,0,0,1-2.918,4.029c-1.961,2.14-4.493,4.034-7.568,4.169a11.889,11.889,0,0,1-9.983-4.953,10.811,10.811,0,0,1-1.639-8.691,18.906,18.906,0,0,1,1.736-5.219c.357-.715-.756-1.358-1.124-.649Z" transform="translate(-437.312 -554.079)" fill="#fff"/>
        </g>
        <g id="Group_113" data-name="Group 113" transform="translate(20.995)">
          <path id="Path_257" data-name="Path 257" d="M478.526,483.126a20.461,20.461,0,0,1,3.365-3.932c2.252-2.073,5.116-3.789,8.337-3.784a13.515,13.515,0,0,1,11.035,5.653,11.437,11.437,0,0,1,1.465,9.379,21.151,21.151,0,0,1-2.553,6.286c-.417.677-1.537.036-1.113-.644a19.972,19.972,0,0,0,2.032-4.533c.873-2.767,1.246-5.908-.168-8.64a11.9,11.9,0,0,0-9.277-6.173,10.815,10.815,0,0,0-8.349,2.921,19.19,19.19,0,0,0-3.656,4.111c-.434.674-1.552.031-1.118-.644Z" transform="translate(-478.427 -475.41)" fill="#fff"/>
        </g>
        <path id="Path_258" data-name="Path 258" d="M460.04,489.556,441.672,521.35a1.5,1.5,0,0,0,.653,2.017l20.246,11.693a1.5,1.5,0,0,0,2.073-.444l18.367-31.8a1.5,1.5,0,0,0-.653-2.017l-20.247-11.691a1.5,1.5,0,0,0-2.071.448Z" transform="translate(-439.365 -481.998)" fill="#49a3db"/>
        <g id="Group_114" data-name="Group 114" transform="translate(9.283 10.778)">
          <path id="Path_259" data-name="Path 259" d="M474.966,496.555q-3.3,5.737-6.607,11.474-5.231,9.076-10.457,18.158l-2.4,4.169c-.077.128.313.357.388.23q3.3-5.737,6.607-11.474,5.231-9.079,10.455-18.16l2.4-4.169C475.43,496.657,475.042,496.427,474.966,496.555Z" transform="translate(-455.491 -496.517)" fill="#457bc9"/>
          <path id="Path_260" data-name="Path 260" d="M488.876,504.745q-3.3,5.737-6.607,11.474-5.231,9.076-10.457,18.158l-2.4,4.169c-.077.128.313.357.388.23q3.3-5.737,6.607-11.474,5.231-9.076,10.457-18.158l2.4-4.169C489.34,504.847,488.952,504.617,488.876,504.745Z" transform="translate(-462.298 -500.525)" fill="#457bc9"/>
        </g>
      </g>
      <path id="Path_890" data-name="Path 890" d="M-79.554-32.056h4.866q3.049,0,4.169,1.271A4.361,4.361,0,0,1-69.4-27.811a3.752,3.752,0,0,1-.407,1.824,5.515,5.515,0,0,1-1.311,1.506,4.438,4.438,0,0,1,2.449,1.763,4.659,4.659,0,0,1,.719,2.489,4.377,4.377,0,0,1-1.576,3.59,6.843,6.843,0,0,1-4.436,1.286h-5.591Zm3.6,2.8v3.664h.823a2.158,2.158,0,0,0,1.533-.581,1.888,1.888,0,0,0,.621-1.436,1.44,1.44,0,0,0-.608-1.168,2.381,2.381,0,0,0-1.52-.479Zm0,6.5v4.6h1.29q2.959,0,2.959-2.169a2.271,2.271,0,0,0-.721-1.807,3.033,3.033,0,0,0-2.061-.632Zm20.278,2.71h-7.8a2.63,2.63,0,0,0,.694,1.72,1.969,1.969,0,0,0,1.469.66,2.646,2.646,0,0,0,2.354-1.362l2.989.99a5.555,5.555,0,0,1-5.177,2.915,5.477,5.477,0,0,1-4.109-1.563A5.771,5.771,0,0,1-66.782-20.9a5.437,5.437,0,0,1,1.609-4,5.374,5.374,0,0,1,3.96-1.615,5.178,5.178,0,0,1,3.95,1.7,5.98,5.98,0,0,1,1.584,4.243Zm-7.772-2.188h4.4q-.458-2.048-2.1-2.048a2.293,2.293,0,0,0-1.559.534,2.31,2.31,0,0,0-.742,1.513Zm18.116-2.519L-47.546-23.4a2.669,2.669,0,0,0-1.789-.967,1.111,1.111,0,0,0-.7.228.686.686,0,0,0-.294.558.886.886,0,0,0,.34.774,9.383,9.383,0,0,0,1.807.746,6.4,6.4,0,0,1,2.313,1.294,2.845,2.845,0,0,1,.846,2.189A3.013,3.013,0,0,1-46.3-16.16a4.755,4.755,0,0,1-3.053,1.011,4.888,4.888,0,0,1-2.41-.673,5.628,5.628,0,0,1-2.042-2.061l2.634-1.2q.89,1.537,1.845,1.537a1.2,1.2,0,0,0,.776-.279.808.808,0,0,0,.343-.634.759.759,0,0,0-.394-.693,1.348,1.348,0,0,0-.585-.236,3.7,3.7,0,0,0-.916-.357q-3.283-1.071-3.283-3.476a2.882,2.882,0,0,1,1.177-2.372,4.837,4.837,0,0,1,3.074-.922,5.2,5.2,0,0,1,3.8,1.756Zm3.065-5.293h3.257v3.752h1.563v2.989H-39.01v7.953h-3.257V-23.3h-1.247v-2.991h1.247ZM-123.451-3.4h5.7a7.8,7.8,0,0,1,5.877,2.3,8.362,8.362,0,0,1,2.226,6.068,8.147,8.147,0,0,1-2.3,6.055,8.3,8.3,0,0,1-6.113,2.278h-5.393Zm3.626,3.156v10.32h1.425a5.429,5.429,0,0,0,3.638-1.208,5.03,5.03,0,0,0,1.425-4.033,6,6,0,0,0-.687-2.907,3.517,3.517,0,0,0-1.991-1.72,7.6,7.6,0,0,0-2.487-.45Zm12.543,8.1a5.572,5.572,0,0,1,1.615-4.135,5.639,5.639,0,0,1,4.148-1.6,5.3,5.3,0,0,1,3.95,1.635,5.571,5.571,0,0,1,1.6,4.052,5.613,5.613,0,0,1-1.6,4.1,5.372,5.372,0,0,1-4,1.628,5.286,5.286,0,0,1-4.211-1.724,5.842,5.842,0,0,1-1.5-3.95Zm8.1,0A2.841,2.841,0,0,0-99.9,5.929a2.192,2.192,0,0,0-1.692-.827,2.288,2.288,0,0,0-1.73.776,2.626,2.626,0,0,0-.725,1.857,2.958,2.958,0,0,0,.719,2.01,2.222,2.222,0,0,0,1.737.827A2.211,2.211,0,0,0-99.9,9.764a2.755,2.755,0,0,0,.725-1.9ZM-85.227,9.51v3.257a7.087,7.087,0,0,1-2.786.763,5.64,5.64,0,0,1-4.122-1.63,5.479,5.479,0,0,1-1.653-4.073,5.68,5.68,0,0,1,1.533-4.071A5.127,5.127,0,0,1-88.364,2.15a7.078,7.078,0,0,1,3.179.763V5.991A6.075,6.075,0,0,0-87.791,5.3a2.382,2.382,0,0,0-1.763.668,2.382,2.382,0,0,0-.668,1.762,2.378,2.378,0,0,0,.662,1.749,2.345,2.345,0,0,0,1.743.668,7.555,7.555,0,0,0,2.6-.636Zm2.583-10.9h3.257V2.364h1.563v2.99h-1.563v7.953h-3.257V5.356h-1.247V2.364h1.247Zm6.476,9.25a5.572,5.572,0,0,1,1.615-4.135,5.639,5.639,0,0,1,4.147-1.6,5.3,5.3,0,0,1,3.95,1.635,5.571,5.571,0,0,1,1.594,4.052,5.613,5.613,0,0,1-1.6,4.1,5.372,5.372,0,0,1-4,1.628,5.286,5.286,0,0,1-4.211-1.724,5.842,5.842,0,0,1-1.5-3.95Zm8.1,0a2.841,2.841,0,0,0-.725-1.934A2.192,2.192,0,0,0-70.476,5.1a2.288,2.288,0,0,0-1.73.776,2.626,2.626,0,0,0-.726,1.858,2.958,2.958,0,0,0,.719,2.01,2.222,2.222,0,0,0,1.737.827,2.211,2.211,0,0,0,1.692-.808,2.755,2.755,0,0,0,.724-1.9Zm9.12-5.5V3.98h.052A4.333,4.333,0,0,1-57.77,2.689a2.047,2.047,0,0,1,1.191-.475,3.209,3.209,0,0,1,.6.052V5.828a4.343,4.343,0,0,0-.806-.077,1.866,1.866,0,0,0-1.559.706,3.136,3.136,0,0,0-.553,1.98v4.869h-3.3V2.364Zm18.434,7.915h4.631V13.3H-47.21l5.534-7.035a17.846,17.846,0,0,0,1.724-2.544,4.057,4.057,0,0,0,.515-1.857A2.1,2.1,0,0,0-40.051.322,2.1,2.1,0,0,0-41.6-.292a1.7,1.7,0,0,0-1.552.77,5.289,5.289,0,0,0-.585,2.407h-3.6a5.884,5.884,0,0,1,1.73-4.567A6.1,6.1,0,0,1-41.294-3.3a5.541,5.541,0,0,1,3.908,1.4,4.632,4.632,0,0,1,1.514,3.568,8.557,8.557,0,0,1-1.769,4.707l-.969,1.413q-.573.852-1.45,1.946Zm12.781-13.43A5.53,5.53,0,0,1-23.128-.941a9.389,9.389,0,0,1,1.72,5.916q0,4.325-1.908,6.418a5.819,5.819,0,0,1-4.415,2.093,5.643,5.643,0,0,1-4.638-2.233,9.158,9.158,0,0,1-1.775-5.871,10.142,10.142,0,0,1,1.737-6.2,5.433,5.433,0,0,1,4.573-2.334ZM-24.82,5.28a8,8,0,0,0-.789-3.88A2.378,2.378,0,0,0-27.733-.012a2.449,2.449,0,0,0-2.2,1.412,8.019,8.019,0,0,0-.8,3.931A7.151,7.151,0,0,0-29.919,9a2.364,2.364,0,0,0,2.147,1.374A2.364,2.364,0,0,0-25.625,9a7.315,7.315,0,0,0,.8-3.715Zm11.971,5h4.631v3.027H-19.553l5.534-7.035A17.845,17.845,0,0,0-12.3,3.728a4.057,4.057,0,0,0,.515-1.857A2.1,2.1,0,0,0-12.394.322a2.1,2.1,0,0,0-1.549-.614,1.7,1.7,0,0,0-1.552.77,5.289,5.289,0,0,0-.588,2.407h-3.6a5.884,5.884,0,0,1,1.73-4.567A6.1,6.1,0,0,1-13.636-3.3,5.541,5.541,0,0,1-9.728-1.9,4.632,4.632,0,0,1-8.214,1.664,8.557,8.557,0,0,1-9.982,6.371l-.971,1.413q-.573.852-1.45,1.946ZM.8-2.926H4.083V6.45H5.622V9.427H4.083v3.88H.521V9.427H-6.691v-3ZM.469,1.15l-4.182,5.3H.521V1.15Z" transform="translate(357.399 218.221)" fill="#cc1f34"/>
    </g>
  </g>
</svg>
